<svg width="57" height="57" viewBox="0 0 57 57" fill="none" xmlns="http://www.w3.org/2000/svg">
<path d="M20.4267 30.8893C26.1223 30.7873 30.7083 26.1102 30.7083 20.3555C30.7083 14.5368 26.0199 9.81992 20.2366 9.81992C15.4103 9.81992 11.3466 13.1049 10.1338 17.5737C9.18599 17.0062 8.14223 16.6713 7.06675 16.6713C3.16389 16.6713 0 19.8545 0 23.7811C0 27.7078 3.16389 30.891 7.06675 30.891H20.4293C20.4293 30.891 20.4285 30.8904 20.4267 30.8893Z" fill="#999999" fill-opacity="0.8" style="mix-blend-mode:multiply"/>
<path d="M39.9959 50.8455C49.4156 50.6768 57 42.9416 57 33.4242C57 23.8011 49.2463 16 39.6815 16C31.6996 16 24.9788 21.4328 22.9731 28.8236C21.4055 27.885 19.6793 27.3311 17.9006 27.3311C11.4459 27.3311 6.21327 32.5956 6.21327 39.0897C6.21327 45.5838 11.4459 50.8483 17.9006 50.8483H40.0003C40.0003 50.8483 39.9988 50.8474 39.9959 50.8455Z" fill="white" fill-opacity="0.8"/>
</svg>
