<svg width="57" height="57" viewBox="0 0 57 57" fill="none" xmlns="http://www.w3.org/2000/svg">
<path d="M56.1872 36.5366L50.3653 40.0107C50.1652 40.1325 50.0001 40.304 49.8859 40.5085C49.7718 40.7131 49.7125 40.9436 49.7139 41.1778V47.9632C49.7139 48.3232 49.5709 48.6684 49.3164 48.9229C49.0619 49.1774 48.7167 49.3203 48.3568 49.3203L41.5714 49.4018C41.3369 49.4055 41.1073 49.47 40.9052 49.5889C40.703 49.7079 40.5351 49.8772 40.4179 50.0803L37.0523 55.97C36.8755 56.2828 36.582 56.5127 36.236 56.6093C35.8901 56.706 35.5199 56.6615 35.2067 56.4857L29.2898 53.1744C29.0835 53.0553 28.8495 52.9926 28.6112 52.9926C28.373 52.9926 28.139 53.0553 27.9327 53.1744L22.0701 56.5807C21.7601 56.7588 21.3924 56.8074 21.0468 56.7159C20.7013 56.6244 20.4057 56.4003 20.2245 56.0922L16.7503 50.2703C16.6285 50.0702 16.457 49.9051 16.2525 49.791C16.048 49.6768 15.8174 49.6175 15.5832 49.6189H8.79781C8.43789 49.6189 8.09273 49.4759 7.83822 49.2214C7.58372 48.9669 7.44072 48.6217 7.44072 48.2618L7.3593 41.4764C7.35553 41.2419 7.29103 41.0123 7.17211 40.8102C7.05319 40.608 6.8839 40.4401 6.68076 40.3229L0.791023 36.9573C0.478301 36.7806 0.24841 36.487 0.151743 36.1411C0.0550765 35.7951 0.0995145 35.4249 0.275325 35.1117L3.58661 29.1948C3.70572 28.9885 3.76842 28.7545 3.76842 28.5162C3.76842 28.278 3.70572 28.044 3.58661 27.8377L0.180361 21.9751C0.00229539 21.6651 -0.046293 21.2974 0.0451825 20.9519C0.136658 20.6063 0.360789 20.3108 0.668891 20.1295L6.49079 16.6553C6.69085 16.5336 6.85598 16.3621 6.97013 16.1575C7.08427 15.953 7.14353 15.7225 7.14216 15.4882V8.70283C7.14216 8.34291 7.28516 7.99773 7.53966 7.74323C7.79417 7.48872 8.13933 7.34575 8.49925 7.34575L15.2847 7.26432C15.5192 7.26055 15.7487 7.19605 15.9509 7.07713C16.1531 6.95821 16.3209 6.78892 16.4382 6.58578L19.8038 0.696039C19.9962 0.395619 20.2991 0.183041 20.6471 0.104308C20.995 0.0255745 21.36 0.0870184 21.663 0.275343L27.5798 3.58663C27.7861 3.70573 28.0202 3.76844 28.2584 3.76844C28.4966 3.76844 28.7306 3.70573 28.9369 3.58663L34.7995 0.180347C35.1095 0.0022819 35.4772 -0.0462883 35.8228 0.0451871C36.1684 0.136663 36.4639 0.360795 36.6452 0.668897L40.1193 6.49078C40.2411 6.69084 40.4126 6.85598 40.6171 6.97013C40.8216 7.08427 41.0522 7.14355 41.2864 7.14218H48.0718C48.4317 7.14218 48.7769 7.28516 49.0314 7.53967C49.2859 7.79417 49.4289 8.13935 49.4289 8.49927L49.5103 15.2847C49.5141 15.5192 49.5786 15.7487 49.6975 15.9509C49.8164 16.1531 49.9857 16.321 50.1889 16.4382L56.0786 19.8038C56.3913 19.9805 56.6212 20.274 56.7179 20.62C56.8145 20.966 56.7701 21.3362 56.5943 21.6494L53.283 27.5663C53.1639 27.7726 53.1012 28.0066 53.1012 28.2448C53.1012 28.483 53.1639 28.7171 53.283 28.9234L56.6893 34.786C56.8376 35.0881 56.8683 35.4345 56.7755 35.758C56.6827 36.0815 56.473 36.359 56.1872 36.5366Z" fill="white" fill-opacity="0.4"/>
<circle cx="28.4141" cy="28.4141" r="22.4141" fill="white" fill-opacity="0.4"/>
<circle cx="28.4141" cy="28.4141" r="19.6123" fill="#FEFEFE" fill-opacity="0.9"/>
</svg>
