<svg width="55" height="33" viewBox="0 0 55 33" fill="none" xmlns="http://www.w3.org/2000/svg">
<path d="M40.9378 32.9977C48.7278 32.8573 55 26.4202 55 18.5C55 10.4919 48.5877 4 40.6778 4C34.0769 4 28.5189 8.52106 26.8602 14.6715C25.5638 13.8905 24.1362 13.4294 22.6653 13.4294C17.3273 13.4294 13 17.8105 13 23.2147C13 28.619 17.3273 33 22.6653 33H40.9414C40.9414 33 40.9402 32.9992 40.9378 32.9977Z" fill="white" fill-opacity="0.9"/>
<path d="M22.6163 22.9981C28.9225 22.8868 34 17.7815 34 11.5C34 5.14873 28.8091 0 22.4059 0C17.0622 0 12.5629 3.58567 11.2201 8.4636C10.1707 7.84416 9.01503 7.47853 7.82427 7.47853C3.50304 7.47853 0 10.9531 0 15.2393C0 19.5254 3.50304 23 7.82427 23H22.6192C22.6192 23 22.6183 22.9994 22.6163 22.9981Z" fill="white" fill-opacity="0.8"/>
</svg>
