<svg width="58" height="57" viewBox="0 0 58 57" fill="none" xmlns="http://www.w3.org/2000/svg">
<path d="M41.682 53.9976C50.2023 53.8523 57.0625 47.1933 57.0625 39C57.0625 30.7157 50.0491 24 41.3976 24C34.1778 24 28.0988 28.677 26.2846 35.0395C24.8666 34.2315 23.3052 33.7546 21.6964 33.7546C15.858 33.7546 11.125 38.2867 11.125 43.8773C11.125 49.4679 15.858 54 21.6964 54H41.6859C41.6859 54 41.6846 53.9992 41.682 53.9976Z" fill="white" fill-opacity="0.8"/>
<path d="M15.2785 19.9988C19.5386 19.9262 22.9687 16.5967 22.9687 12.5C22.9687 8.35786 19.462 5 15.1363 5C11.5264 5 8.4869 7.33848 7.57978 10.5197C6.87082 10.1158 6.09012 9.8773 5.2857 9.8773C2.36649 9.8773 0 12.1433 0 14.9387C0 17.734 2.36649 20 5.2857 20H15.2805C15.2805 20 15.2798 19.9996 15.2785 19.9988Z" fill="white" fill-opacity="0.8"/>
</svg>
