<svg width="32" height="30" viewBox="0 0 32 30" fill="none" xmlns="http://www.w3.org/2000/svg">
<path d="M12 10.9022C12 14.2699 9.31371 17 6 17C2.68629 17 0 14.2699 0 10.9022C0 7.30109 2.90657 3.43146 4.67371 1.41157C5.38539 0.598096 6.60513 0.606938 7.30906 1.42713C9.07447 3.48411 12 7.41839 12 10.9022Z" fill="#3B4668" fill-opacity="0.8"/>
<path d="M32 21.0326C32 25.9852 27.7467 30 22.5 30C17.2533 30 13 25.9852 13 21.0326C13 15.1883 18.605 8.86296 21.2044 6.2437C21.9258 5.51682 23.0663 5.52562 23.7794 6.26067C26.3717 8.93296 32 15.3853 32 21.0326Z" fill="#3B4668" fill-opacity="0.8"/>
</svg>
