<svg width="44" height="44" viewBox="0 0 44 44" fill="none" xmlns="http://www.w3.org/2000/svg">
<path fill-rule="evenodd" clip-rule="evenodd" d="M11.1774 13.5862C11.9866 10.508 14.679 8.30001 17.8159 8.30001C20.9042 8.30001 23.564 10.4428 24.4158 13.4443C22.0463 14.8587 20.1754 17.0414 19.1268 19.6497C18.3269 19.3501 17.4761 19.1785 16.5941 19.1785C13.7195 19.1785 11.178 20.562 9.55568 22.7H7.52301C5.23667 22.7 3.3 20.7607 3.3 18.2638C3.3 15.7669 5.23667 13.8276 7.52301 13.8276C8.07991 13.8276 8.66207 14.0064 9.23663 14.3616C9.58718 14.5782 10.0197 14.6158 10.4024 14.4629C10.7851 14.3101 11.0726 13.9848 11.1774 13.5862ZM8.17925 25.3H7.52301C3.7088 25.3 0.700001 22.103 0.700001 18.2638C0.700001 14.4247 3.7088 11.2276 7.52301 11.2276C8.09164 11.2276 8.64112 11.3202 9.16271 11.4842C10.6395 8.09406 13.9384 5.70001 17.8159 5.70001C22.0147 5.70001 25.5329 8.50471 26.7974 12.3459C28.0382 11.927 29.3657 11.7 30.7469 11.7C37.7062 11.7 43.3 17.4575 43.3 24.5C43.3 31.4391 37.87 37.1299 31.0528 37.2963C31.0201 37.2987 30.9872 37.3 30.954 37.3H16.5941C11.6556 37.3 7.7 33.2166 7.7 28.2393C7.7 27.2121 7.86846 26.223 8.17925 25.3ZM21.1461 21.7992C22.3057 17.4588 26.1809 14.3 30.7469 14.3C36.2174 14.3 40.7 18.84 40.7 24.5C40.7 30.0975 36.3151 34.6003 30.9275 34.6984C30.9121 34.6986 30.8968 34.6992 30.8816 34.7H16.5941C13.1444 34.7 10.3 31.8342 10.3 28.2393C10.3 24.6444 13.1444 21.7785 16.5941 21.7785C17.4711 21.7785 18.3619 22.0557 19.2147 22.5743C19.5646 22.7871 19.9943 22.8226 20.3743 22.6701C20.7544 22.5175 21.0404 22.1948 21.1461 21.7992Z" fill="#3B4668" fill-opacity="0.8"/>
</svg>
