<svg width="44" height="44" viewBox="0 0 44 44" fill="none" xmlns="http://www.w3.org/2000/svg">
<path fill-rule="evenodd" clip-rule="evenodd" d="M11.0158 4.17141L10.02 9.17369C9.83749 10.0903 9.1185 10.8054 8.2009 10.9828L3.19647 11.9505L6.03124 16.1911C6.55052 16.9679 6.54823 17.9817 6.02545 18.7562L3.17247 22.9826L5.04213 23.3531L7.70419 23.8806C8.61438 23.3321 9.61683 22.9273 10.6839 22.6975C9.45012 21.3178 8.70001 19.4965 8.70001 17.5C8.70001 13.1922 12.1922 9.7 16.5 9.7C18.913 9.7 21.0708 10.7972 22.4995 12.5152C23.0453 13.1715 23.486 13.9197 23.7948 14.7334C25.313 14.1094 26.9611 13.7479 28.6887 13.7044L29.8286 12.0158L24.8263 11.02C23.9097 10.8375 23.1947 10.1185 23.0172 9.20089L22.0495 4.19646L17.8089 7.03124C17.0321 7.55052 16.0183 7.54823 15.2438 7.02545L11.0158 4.17141ZM31.661 13.9483L32.236 13.0965C33.1556 11.7342 32.3908 9.87486 30.7788 9.55394L25.5317 8.50936L24.5165 3.25937C24.2042 1.64465 22.3474 0.869926 20.9801 1.78392L16.5315 4.75772L12.0965 1.76399C10.7342 0.844379 8.87487 1.60922 8.55395 3.22125L7.50937 8.46835L2.25938 9.48354C0.644654 9.79578 -0.130069 11.6526 0.783925 13.0199L3.75773 17.4685L0.764807 21.9023C-0.155294 23.2654 0.610894 25.1256 2.22407 25.4453L4.53675 25.9035L5.18707 26.0324C3.63498 27.8713 2.7 30.2766 2.7 32.8896C2.7 38.5884 7.14752 43.3 12.7448 43.3H29.2803C29.3156 43.3 29.3506 43.2986 29.3853 43.2958C37.1492 43.1053 43.3 36.5057 43.3 28.5C43.3 21.295 38.317 15.2278 31.661 13.9483ZM21.4678 15.9578C21.2638 15.2994 20.932 14.6965 20.5005 14.1777C19.5446 13.0282 18.1079 12.3 16.5 12.3C13.6281 12.3 11.3 14.6281 11.3 17.5C11.3 20.1804 13.328 22.3871 15.9333 22.6695C17.0795 19.8979 19.0213 17.5538 21.4678 15.9578ZM17.7977 25.2651C19.1608 20.064 23.7074 16.3 29.0418 16.3C35.4308 16.3 40.7 21.7114 40.7 28.5C40.7 35.2134 35.5455 40.5813 29.253 40.698C29.2358 40.6984 29.2187 40.699 29.2017 40.7H12.7448C8.68281 40.7 5.3 37.2539 5.3 32.8896C5.3 28.5253 8.68281 25.0791 12.7448 25.0791C13.7911 25.0791 14.8485 25.4164 15.8552 26.0404C16.2058 26.2578 16.6389 26.2959 17.0221 26.1429C17.4052 25.99 17.6931 25.6642 17.7977 25.2651Z" fill="#3B4668" fill-opacity="0.8"/>
</svg>
