<svg width="44" height="44" viewBox="0 0 44 44" fill="none" xmlns="http://www.w3.org/2000/svg">
<path d="M22 30C26.4183 30 30 26.4183 30 22C30 17.5817 26.4183 14 22 14C17.5817 14 14 17.5817 14 22C14 26.4183 17.5817 30 22 30Z" stroke="#3B4668" stroke-opacity="0.8" stroke-width="2.6" stroke-linecap="round" stroke-linejoin="round"/>
<path d="M40.1221 28.6604C40.5188 29.2549 40.1819 30.0616 39.4801 30.1973L32.3187 31.5821C31.9195 31.6593 31.6067 31.9706 31.5277 32.3695L30.1101 39.5232C29.9711 40.2246 29.1623 40.5578 28.5697 40.1577L22.5221 36.0754C22.1856 35.8483 21.7451 35.8471 21.4075 36.0725L15.3396 40.1221C14.7451 40.5188 13.9384 40.1819 13.8027 39.4801L12.4179 32.3187C12.3407 31.9195 12.0294 31.6067 11.6305 31.5277L4.47675 30.1101C3.77537 29.9711 3.44225 29.1623 3.84229 28.5697L7.9243 22.5225C8.15159 22.1858 8.15259 21.745 7.92682 21.4073L3.87099 15.34C3.4736 14.7456 3.81044 13.9382 4.51249 13.8025L11.6733 12.4178C12.0723 12.3406 12.3849 12.0298 12.4642 11.6312L13.8889 4.47507C14.0284 3.77419 14.8368 3.44165 15.4291 3.84148L21.4775 7.9243C21.8142 8.15159 22.255 8.15259 22.5927 7.92682L28.66 3.87099C29.2544 3.4736 30.0618 3.81044 30.1975 4.51249L31.5822 11.6733C31.6594 12.0723 31.9702 12.3849 32.3688 12.4642L39.5249 13.8889C40.2258 14.0284 40.5583 14.8368 40.1585 15.4291L36.0754 21.4779C35.8483 21.8144 35.8471 22.2549 36.0725 22.5925L40.1221 28.6604Z" stroke="#3B4668" stroke-opacity="0.8" stroke-width="2.6" stroke-linecap="round" stroke-linejoin="round"/>
</svg>
