<svg width="44" height="44" viewBox="0 0 44 44" fill="none" xmlns="http://www.w3.org/2000/svg">
<g clip-path="url(#clip0_103_892)">
<path fill-rule="evenodd" clip-rule="evenodd" d="M17.8159 2.6C14.679 2.6 11.9866 4.80799 11.1774 7.88624C11.0726 8.28479 10.7851 8.61006 10.4024 8.76294C10.0197 8.91582 9.58718 8.8782 9.23663 8.66154C8.66206 8.30643 8.0799 8.12761 7.52301 8.12761C5.23667 8.12761 3.3 10.0669 3.3 12.5638C3.3 15.0607 5.23667 17 7.52301 17H9.55569C11.178 14.862 13.7195 13.4785 16.5941 13.4785C17.4761 13.4785 18.3269 13.6501 19.1268 13.9497C20.1754 11.3414 22.0463 9.15867 24.4158 7.74435C23.564 4.74279 20.9042 2.6 17.8159 2.6ZM7.52301 19.6H8.17925C7.86846 20.523 7.7 21.5121 7.7 22.5393C7.7 27.5166 11.6556 31.6 16.5941 31.6H18.4743L18.0978 32.759C17.9001 33.3678 18.0057 34.0346 18.382 34.5525C18.7583 35.0704 19.3598 35.3768 20 35.3768H21.4927L20.1391 41.5732C19.927 42.5442 20.4601 43.5236 21.3907 43.8726C22.3212 44.2216 23.3669 43.8344 23.8457 42.9634L30.092 31.6H30.954C30.9871 31.6 31.0201 31.5987 31.0527 31.5963C37.87 31.4299 43.3 25.7391 43.3 18.8C43.3 11.7575 37.7062 6 30.7469 6C29.3657 6 28.0382 6.227 26.7974 6.64588C25.5329 2.80471 22.0147 0 17.8159 0C13.9384 0 10.6395 2.39405 9.16271 5.78414C8.64111 5.62014 8.09164 5.52761 7.52301 5.52761C3.7088 5.52761 0.699997 8.72466 0.699997 12.5638C0.699997 16.4029 3.7088 19.6 7.52301 19.6ZM30.9517 28.9979C36.3282 28.8868 40.7 24.3891 40.7 18.8C40.7 13.14 36.2174 8.6 30.7469 8.6C26.1809 8.6 22.3057 11.7588 21.1461 16.0992C21.0404 16.4948 20.7544 16.8175 20.3743 16.9701C19.9943 17.1226 19.5646 17.0871 19.2147 16.8743C18.3619 16.3558 17.4711 16.0785 16.5941 16.0785C13.1444 16.0785 10.3 18.9444 10.3 22.5393C10.3 26.1342 13.1444 29 16.5941 29H19.3188L20.8188 24.3821C21.0865 23.558 21.8544 23 22.7209 23H27.1163C27.7874 23 28.4138 23.3366 28.7842 23.8963C29.1545 24.456 29.2195 25.1642 28.9571 25.7819L28.255 27.4348H29C29.707 27.4348 30.3615 27.8081 30.7215 28.4167C30.8298 28.5998 30.9066 28.7961 30.9517 28.9979ZM23.9767 33.3768H22.1029H21.9296H20L20.6496 31.3768L22.7209 25H24.9433H27.1163L26.2668 27L26.0821 27.4348L25.2326 29.4348H26.7178H27.4055H29L27.9006 31.4348L25.4903 35.8197L22.093 42L23.5398 35.3768L23.5981 35.11L23.9767 33.3768Z" fill="#3B4668" fill-opacity="0.8"/>
</g>
<defs>
<clipPath id="clip0_103_892">
<rect width="44" height="44" fill="white"/>
</clipPath>
</defs>
</svg>
