<svg width="44" height="44" viewBox="0 0 44 44" fill="none" xmlns="http://www.w3.org/2000/svg">
<path fill-rule="evenodd" clip-rule="evenodd" d="M25.1931 12.7934C20.5547 12.7934 16.6187 16.0022 15.4408 20.4107C15.3351 20.8064 15.0491 21.1291 14.6691 21.2816C14.289 21.4341 13.8593 21.3987 13.5094 21.1859C12.6424 20.6587 11.7359 20.3763 10.8428 20.3763C7.33458 20.3763 4.44267 23.2907 4.44267 26.9454C4.44267 30.6002 7.33458 33.5145 10.8428 33.5145H25.3302C25.3456 33.5137 25.3611 33.5131 25.3766 33.5128C30.8497 33.4133 35.3034 28.8392 35.3034 23.1539C35.3034 17.4052 30.7504 12.7934 25.1931 12.7934ZM25.5024 36.1107C32.4049 35.9425 37.9034 30.1806 37.9034 23.1539C37.9034 16.0228 32.2393 10.1934 25.1931 10.1934C19.8566 10.1934 15.3107 13.5405 13.4211 18.2591C12.6071 17.9522 11.7408 17.7763 10.8428 17.7763C5.84574 17.7763 1.84267 21.9082 1.84267 26.9454C1.84267 31.9826 5.84574 36.1145 10.8428 36.1145H25.4032C25.4365 36.1145 25.4696 36.1132 25.5024 36.1107Z" fill="#3B4668" fill-opacity="0.8"/>
</svg>
