<svg width="44" height="44" viewBox="0 0 44 44" fill="none" xmlns="http://www.w3.org/2000/svg">
<path fill-rule="evenodd" clip-rule="evenodd" d="M11.1774 15.5862C11.9866 12.508 14.679 10.3 17.8159 10.3C20.9042 10.3 23.564 12.4428 24.4158 15.4443C22.0463 16.8587 20.1754 19.0414 19.1268 21.6497C18.3269 21.3501 17.4761 21.1785 16.5941 21.1785C13.7195 21.1785 11.178 22.562 9.55569 24.7H7.52301C5.23667 24.7 3.3 22.7607 3.3 20.2638C3.3 17.7669 5.23667 15.8276 7.52301 15.8276C8.07991 15.8276 8.66207 16.0064 9.23663 16.3615C9.58718 16.5782 10.0197 16.6158 10.4024 16.4629C10.7851 16.3101 11.0726 15.9848 11.1774 15.5862ZM8.17926 27.3H7.52301C3.7088 27.3 0.7 24.1029 0.7 20.2638C0.7 16.4247 3.7088 13.2276 7.52301 13.2276C8.09164 13.2276 8.64112 13.3201 9.16271 13.4841C10.6395 10.0941 13.9384 7.7 17.8159 7.7C22.0147 7.7 25.5329 10.5047 26.7974 14.3459C28.0382 13.927 29.3657 13.7 30.7469 13.7C37.7062 13.7 43.3 19.4575 43.3 26.5C43.3 33.4391 37.87 39.1299 31.0528 39.2963C31.0201 39.2987 30.9872 39.3 30.954 39.3H16.5941C11.6556 39.3 7.7 35.2166 7.7 30.2393C7.7 29.2121 7.86846 28.223 8.17926 27.3ZM21.1461 23.7992C22.3057 19.4588 26.1809 16.3 30.7469 16.3C36.2174 16.3 40.7 20.84 40.7 26.5C40.7 32.0975 36.3151 36.6003 30.9275 36.6984C30.9194 36.6985 30.9113 36.6987 30.9033 36.699C30.896 36.6993 30.8888 36.6996 30.8816 36.7H16.5941C13.1444 36.7 10.3 33.8342 10.3 30.2393C10.3 26.6444 13.1444 23.7785 16.5941 23.7785C17.4711 23.7785 18.3619 24.0558 19.2147 24.5743C19.5646 24.7871 19.9943 24.8226 20.3743 24.6701C20.7544 24.5175 21.0404 24.1948 21.1461 23.7992Z" fill="#3B4668" fill-opacity="0.8"/>
</svg>
