<svg width="44" height="44" viewBox="0 0 44 44" fill="none" xmlns="http://www.w3.org/2000/svg">
<path fill-rule="evenodd" clip-rule="evenodd" d="M11.1774 7.88624C11.9866 4.80799 14.679 2.6 17.8159 2.6C20.9042 2.6 23.564 4.74279 24.4158 7.74435C22.0463 9.15867 20.1754 11.3414 19.1268 13.9497C18.3269 13.6501 17.4761 13.4785 16.5941 13.4785C13.7195 13.4785 11.178 14.862 9.55569 17H7.52301C5.23667 17 3.3 15.0607 3.3 12.5638C3.3 10.0669 5.23667 8.12761 7.52301 8.12761C8.0799 8.12761 8.66206 8.30643 9.23663 8.66154C9.58718 8.8782 10.0197 8.91582 10.4024 8.76294C10.7851 8.61006 11.0726 8.28479 11.1774 7.88624ZM8.17925 19.6H7.52301C3.7088 19.6 0.699997 16.4029 0.699997 12.5638C0.699997 8.72466 3.7088 5.52761 7.52301 5.52761C8.09164 5.52761 8.64111 5.62014 9.16271 5.78414C10.6395 2.39405 13.9384 0 17.8159 0C22.0147 0 25.5329 2.80471 26.7974 6.64588C28.0382 6.227 29.3657 6 30.7469 6C37.7062 6 43.3 11.7575 43.3 18.8C43.3 25.7391 37.87 31.4299 31.0528 31.5963C31.0201 31.5987 30.9872 31.6 30.954 31.6H16.5941C11.6556 31.6 7.7 27.5166 7.7 22.5393C7.7 21.5121 7.86846 20.523 8.17925 19.6ZM21.1461 16.0992C22.3057 11.7588 26.1809 8.6 30.7469 8.6C36.2174 8.6 40.7 13.14 40.7 18.8C40.7 24.3975 36.3151 28.9003 30.9275 28.9984C30.9121 28.9986 30.8968 28.9992 30.8816 29H16.5941C13.1444 29 10.3 26.1342 10.3 22.5393C10.3 18.9444 13.1444 16.0785 16.5941 16.0785C17.4711 16.0785 18.3619 16.3558 19.2147 16.8743C19.5646 17.0871 19.9943 17.1226 20.3743 16.9701C20.7544 16.8175 21.0404 16.4948 21.1461 16.0992Z" fill="#3B4668" fill-opacity="0.8"/>
<path d="M11 42L14 39" stroke="#3B4668" stroke-opacity="0.8" stroke-width="2" stroke-linecap="round" stroke-linejoin="round"/>
<path d="M18 42L21 39" stroke="#3B4668" stroke-opacity="0.8" stroke-width="2" stroke-linecap="round" stroke-linejoin="round"/>
<path d="M25 42L28 39" stroke="#3B4668" stroke-opacity="0.8" stroke-width="2" stroke-linecap="round" stroke-linejoin="round"/>
<path d="M17 36L20 33" stroke="#3B4668" stroke-opacity="0.8" stroke-width="2" stroke-linecap="round" stroke-linejoin="round"/>
<path d="M24 36L27 33" stroke="#3B4668" stroke-opacity="0.8" stroke-width="2" stroke-linecap="round" stroke-linejoin="round"/>
<path d="M31 36L34 33" stroke="#3B4668" stroke-opacity="0.8" stroke-width="2" stroke-linecap="round" stroke-linejoin="round"/>
</svg>
