<svg width="44" height="44" viewBox="0 0 44 44" fill="none" xmlns="http://www.w3.org/2000/svg">
<g clip-path="url(#clip0_103_894)">
<path fill-rule="evenodd" clip-rule="evenodd" d="M12.5536 8.02546C13.2548 5.35796 15.5854 3.4519 18.2926 3.4519C20.9207 3.4519 23.196 5.25079 23.9664 7.79421C21.9255 9.04101 20.3066 10.9264 19.371 13.1727C18.6866 12.932 17.9613 12.7949 17.21 12.7949C14.6399 12.7949 12.3661 14.019 10.9003 15.9152H9.17229C7.23345 15.9152 5.57849 14.2685 5.57849 12.1325C5.57849 9.99651 7.23345 8.34978 9.17229 8.34978C9.63343 8.34978 10.1227 8.49781 10.6128 8.80077C10.9634 9.01742 11.3959 9.05504 11.7786 8.90216C12.1613 8.74928 12.4488 8.42401 12.5536 8.02546ZM9.55038 18.5152H9.17229C5.70558 18.5152 2.97849 15.6107 2.97849 12.1325C2.97849 8.65426 5.70558 5.74978 9.17229 5.74978C9.64649 5.74978 10.1054 5.82013 10.5429 5.94579C11.8984 2.95551 14.8394 0.851898 18.2926 0.851898C22.0304 0.851898 25.166 3.31418 26.344 6.70197C27.4176 6.35549 28.5618 6.16835 29.7504 6.16835C36.0017 6.16835 41.0215 11.3393 41.0215 17.6582C41.0215 23.8832 36.1507 28.9933 30.0288 29.1447C29.9974 29.1469 29.9658 29.1481 29.9339 29.1481H17.21C12.7493 29.1481 9.18102 25.4606 9.18102 20.9715C9.18102 20.1171 9.31029 19.2917 9.55038 18.5152ZM21.3864 15.3033C22.3976 11.5186 25.7753 8.76835 29.7504 8.76835C34.5129 8.76835 38.4215 12.7217 38.4215 17.6582C38.4215 22.5401 34.598 26.4613 29.9078 26.5467C29.8994 26.5468 29.8911 26.5471 29.8828 26.5474C29.8771 26.5476 29.8715 26.5478 29.8659 26.5481H17.21C14.2381 26.5481 11.781 24.0781 11.781 20.9715C11.781 17.8649 14.2381 15.3949 17.21 15.3949C17.9552 15.3949 18.7183 15.6305 19.455 16.0785C19.8049 16.2913 20.2346 16.3267 20.6147 16.1742C20.9948 16.0217 21.2807 15.699 21.3864 15.3033Z" fill="#3B4668" fill-opacity="0.8"/>
<mask id="path-2-outside-1_103_894" maskUnits="userSpaceOnUse" x="9.12482" y="30.075" width="14" height="15" fill="black">
<rect fill="white" x="9.12482" y="30.075" width="14" height="15"/>
<path fill-rule="evenodd" clip-rule="evenodd" d="M16.6528 31.4888C16.6528 31.2603 16.4675 31.075 16.239 31.075C16.0104 31.075 15.8252 31.2603 15.8252 31.4888V33.275L14.4124 31.8622C14.2508 31.7006 13.9888 31.7006 13.8272 31.8622C13.6656 32.0238 13.6656 32.2858 13.8272 32.4474L15.7513 34.3716C15.7747 34.395 15.7994 34.4164 15.8252 34.4357V36.7966L13.7805 35.6162C13.7766 35.5842 13.7705 35.5521 13.7619 35.5202L13.0576 32.8918C12.9985 32.671 12.7716 32.54 12.5508 32.5992C12.3301 32.6583 12.1991 32.8852 12.2582 33.106L12.7753 35.0358L11.2285 34.1427C11.0305 34.0285 10.7775 34.0963 10.6632 34.2942C10.5489 34.4921 10.6167 34.7452 10.8147 34.8594L12.3616 35.7526L10.4316 36.2697C10.2109 36.3289 10.0799 36.5557 10.139 36.7765C10.1982 36.9972 10.4251 37.1282 10.6458 37.0691L13.2742 36.3648C13.3063 36.3562 13.3371 36.3455 13.3668 36.3329L15.4114 37.5133L13.3667 38.6938C13.3371 38.6812 13.3062 38.6705 13.2742 38.6619L10.6458 37.9576C10.4251 37.8985 10.1982 38.0295 10.139 38.2502C10.0799 38.471 10.2109 38.6979 10.4316 38.757L12.3615 39.2742L10.8146 40.1673C10.6167 40.2815 10.5489 40.5346 10.6632 40.7325C10.7774 40.9304 11.0305 40.9982 11.2284 40.884L12.7753 39.9909L12.2582 41.9208C12.1991 42.1415 12.3301 42.3684 12.5508 42.4276C12.7715 42.4867 12.9984 42.3557 13.0576 42.135L13.7619 39.5066C13.7704 39.4746 13.7766 39.4425 13.7805 39.4105L15.8252 38.23V40.591C15.7994 40.6103 15.7747 40.6317 15.7513 40.6551L13.8272 42.5793C13.6656 42.7408 13.6656 43.0028 13.8272 43.1644C13.9888 43.326 14.2508 43.326 14.4124 43.1644L15.8252 41.7517V43.5379C15.8252 43.7664 16.0104 43.9517 16.239 43.9517C16.4675 43.9517 16.6528 43.7664 16.6528 43.5379V41.7517L18.0655 43.1644C18.2271 43.326 18.4891 43.326 18.6507 43.1644C18.8123 43.0028 18.8123 42.7408 18.6507 42.5793L16.7266 40.6551C16.7032 40.6317 16.6785 40.6103 16.6528 40.591V38.2301L18.6973 39.4105C18.7012 39.4425 18.7074 39.4745 18.716 39.5065L19.4203 42.1349C19.4794 42.3557 19.7063 42.4867 19.9271 42.4275C20.1478 42.3684 20.2788 42.1415 20.2196 41.9207L19.7025 39.9908L21.2494 40.884C21.4474 40.9982 21.7004 40.9304 21.8147 40.7325C21.929 40.5346 21.8612 40.2815 21.6632 40.1672L20.1163 39.2741L22.0462 38.757C22.267 38.6979 22.398 38.471 22.3388 38.2502C22.2797 38.0295 22.0528 37.8985 21.832 37.9576L19.2036 38.6619C19.1716 38.6705 19.1408 38.6812 19.1111 38.6938L17.0665 37.5133L19.1111 36.3329C19.1408 36.3455 19.1716 36.3562 19.2036 36.3648L21.832 37.069C22.0527 37.1282 22.2796 36.9972 22.3388 36.7764C22.3979 36.5557 22.2669 36.3288 22.0462 36.2696L20.1163 35.7525L21.6632 34.8594C21.8611 34.7452 21.9289 34.4921 21.8147 34.2942C21.7004 34.0963 21.4473 34.0285 21.2494 34.1427L19.7025 35.0359L20.2196 33.1059C20.2788 32.8852 20.1478 32.6583 19.927 32.5991C19.7063 32.54 19.4794 32.671 19.4202 32.8917L18.716 35.5201C18.7074 35.5521 18.7012 35.5842 18.6973 35.6162L16.6528 36.7966V34.4357C16.6785 34.4164 16.7032 34.395 16.7266 34.3716L18.6507 32.4474C18.8123 32.2858 18.8123 32.0238 18.6507 31.8622C18.4891 31.7006 18.2271 31.7006 18.0655 31.8622L16.6528 33.275V31.4888Z"/>
</mask>
<path fill-rule="evenodd" clip-rule="evenodd" d="M16.6528 31.4888C16.6528 31.2603 16.4675 31.075 16.239 31.075C16.0104 31.075 15.8252 31.2603 15.8252 31.4888V33.275L14.4124 31.8622C14.2508 31.7006 13.9888 31.7006 13.8272 31.8622C13.6656 32.0238 13.6656 32.2858 13.8272 32.4474L15.7513 34.3716C15.7747 34.395 15.7994 34.4164 15.8252 34.4357V36.7966L13.7805 35.6162C13.7766 35.5842 13.7705 35.5521 13.7619 35.5202L13.0576 32.8918C12.9985 32.671 12.7716 32.54 12.5508 32.5992C12.3301 32.6583 12.1991 32.8852 12.2582 33.106L12.7753 35.0358L11.2285 34.1427C11.0305 34.0285 10.7775 34.0963 10.6632 34.2942C10.5489 34.4921 10.6167 34.7452 10.8147 34.8594L12.3616 35.7526L10.4316 36.2697C10.2109 36.3289 10.0799 36.5557 10.139 36.7765C10.1982 36.9972 10.4251 37.1282 10.6458 37.0691L13.2742 36.3648C13.3063 36.3562 13.3371 36.3455 13.3668 36.3329L15.4114 37.5133L13.3667 38.6938C13.3371 38.6812 13.3062 38.6705 13.2742 38.6619L10.6458 37.9576C10.4251 37.8985 10.1982 38.0295 10.139 38.2502C10.0799 38.471 10.2109 38.6979 10.4316 38.757L12.3615 39.2742L10.8146 40.1673C10.6167 40.2815 10.5489 40.5346 10.6632 40.7325C10.7774 40.9304 11.0305 40.9982 11.2284 40.884L12.7753 39.9909L12.2582 41.9208C12.1991 42.1415 12.3301 42.3684 12.5508 42.4276C12.7715 42.4867 12.9984 42.3557 13.0576 42.135L13.7619 39.5066C13.7704 39.4746 13.7766 39.4425 13.7805 39.4105L15.8252 38.23V40.591C15.7994 40.6103 15.7747 40.6317 15.7513 40.6551L13.8272 42.5793C13.6656 42.7408 13.6656 43.0028 13.8272 43.1644C13.9888 43.326 14.2508 43.326 14.4124 43.1644L15.8252 41.7517V43.5379C15.8252 43.7664 16.0104 43.9517 16.239 43.9517C16.4675 43.9517 16.6528 43.7664 16.6528 43.5379V41.7517L18.0655 43.1644C18.2271 43.326 18.4891 43.326 18.6507 43.1644C18.8123 43.0028 18.8123 42.7408 18.6507 42.5793L16.7266 40.6551C16.7032 40.6317 16.6785 40.6103 16.6528 40.591V38.2301L18.6973 39.4105C18.7012 39.4425 18.7074 39.4745 18.716 39.5065L19.4203 42.1349C19.4794 42.3557 19.7063 42.4867 19.9271 42.4275C20.1478 42.3684 20.2788 42.1415 20.2196 41.9207L19.7025 39.9908L21.2494 40.884C21.4474 40.9982 21.7004 40.9304 21.8147 40.7325C21.929 40.5346 21.8612 40.2815 21.6632 40.1672L20.1163 39.2741L22.0462 38.757C22.267 38.6979 22.398 38.471 22.3388 38.2502C22.2797 38.0295 22.0528 37.8985 21.832 37.9576L19.2036 38.6619C19.1716 38.6705 19.1408 38.6812 19.1111 38.6938L17.0665 37.5133L19.1111 36.3329C19.1408 36.3455 19.1716 36.3562 19.2036 36.3648L21.832 37.069C22.0527 37.1282 22.2796 36.9972 22.3388 36.7764C22.3979 36.5557 22.2669 36.3288 22.0462 36.2696L20.1163 35.7525L21.6632 34.8594C21.8611 34.7452 21.9289 34.4921 21.8147 34.2942C21.7004 34.0963 21.4473 34.0285 21.2494 34.1427L19.7025 35.0359L20.2196 33.1059C20.2788 32.8852 20.1478 32.6583 19.927 32.5991C19.7063 32.54 19.4794 32.671 19.4202 32.8917L18.716 35.5201C18.7074 35.5521 18.7012 35.5842 18.6973 35.6162L16.6528 36.7966V34.4357C16.6785 34.4164 16.7032 34.395 16.7266 34.3716L18.6507 32.4474C18.8123 32.2858 18.8123 32.0238 18.6507 31.8622C18.4891 31.7006 18.2271 31.7006 18.0655 31.8622L16.6528 33.275V31.4888Z" fill="#3B4668" fill-opacity="0.8"/>
<path d="M15.8252 33.275L15.6837 33.4165L16.0252 33.7579V33.275H15.8252ZM14.4124 31.8622L14.5538 31.7208L14.5538 31.7208L14.4124 31.8622ZM13.8272 31.8622L13.6858 31.7208L13.6858 31.7208L13.8272 31.8622ZM13.8272 32.4474L13.9686 32.306L13.9686 32.306L13.8272 32.4474ZM15.7513 34.3716L15.6099 34.513L15.6099 34.513L15.7513 34.3716ZM15.8252 34.4357H16.0252V34.3359L15.9453 34.2759L15.8252 34.4357ZM15.8252 36.7966L15.7252 36.9698L16.0252 37.143V36.7966H15.8252ZM13.7805 35.6162L13.582 35.6403L13.5941 35.7394L13.6805 35.7894L13.7805 35.6162ZM13.7619 35.5202L13.5687 35.5719L13.5687 35.5719L13.7619 35.5202ZM13.0576 32.8918L12.8644 32.9435L12.8644 32.9435L13.0576 32.8918ZM12.5508 32.5992L12.6026 32.7924L12.6026 32.7924L12.5508 32.5992ZM12.2582 33.106L12.065 33.1577L12.065 33.1577L12.2582 33.106ZM12.7753 35.0358L12.6753 35.209L13.0935 35.4504L12.9685 34.984L12.7753 35.0358ZM11.2285 34.1427L11.1285 34.3159L11.1285 34.3159L11.2285 34.1427ZM10.6632 34.2942L10.49 34.1942L10.49 34.1942L10.6632 34.2942ZM10.8147 34.8594L10.9147 34.6862L10.9147 34.6862L10.8147 34.8594ZM12.3616 35.7526L12.4134 35.9458L12.8798 35.8208L12.4616 35.5794L12.3616 35.7526ZM10.4316 36.2697L10.4834 36.4629L10.4834 36.4629L10.4316 36.2697ZM10.139 36.7765L9.94586 36.8283L9.94586 36.8283L10.139 36.7765ZM10.6458 37.0691L10.6976 37.2623L10.6458 37.0691ZM13.2742 36.3648L13.2225 36.1716L13.2225 36.1716L13.2742 36.3648ZM13.3668 36.3329L13.4668 36.1597L13.3803 36.1098L13.2884 36.1489L13.3668 36.3329ZM15.4114 37.5133L15.5114 37.6865L15.8114 37.5133L15.5114 37.3401L15.4114 37.5133ZM13.3667 38.6938L13.2884 38.8778L13.3802 38.9169L13.4667 38.867L13.3667 38.6938ZM13.2742 38.6619L13.326 38.4687L13.326 38.4687L13.2742 38.6619ZM10.6458 37.9576L10.594 38.1508L10.594 38.1508L10.6458 37.9576ZM10.139 38.2502L9.94583 38.1985L9.94583 38.1985L10.139 38.2502ZM10.4316 38.757L10.3799 38.9502L10.3799 38.9502L10.4316 38.757ZM12.3615 39.2742L12.4615 39.4474L12.8797 39.2059L12.4133 39.081L12.3615 39.2742ZM10.8146 40.1673L10.9146 40.3405L10.9146 40.3405L10.8146 40.1673ZM10.6632 40.7325L10.49 40.8325L10.49 40.8325L10.6632 40.7325ZM11.2284 40.884L11.3284 41.0572L11.3284 41.0572L11.2284 40.884ZM12.7753 39.9909L12.9685 40.0426L13.0935 39.5763L12.6753 39.8177L12.7753 39.9909ZM12.2582 41.9208L12.4514 41.9725L12.4514 41.9725L12.2582 41.9208ZM12.5508 42.4276L12.499 42.6207L12.499 42.6207L12.5508 42.4276ZM13.0576 42.135L13.2508 42.1867L13.2508 42.1867L13.0576 42.135ZM13.7619 39.5066L13.5687 39.4548L13.5687 39.4548L13.7619 39.5066ZM13.7805 39.4105L13.6805 39.2373L13.594 39.2873L13.582 39.3864L13.7805 39.4105ZM15.8252 38.23H16.0252V37.8836L15.7252 38.0568L15.8252 38.23ZM15.8252 40.591L15.9454 40.7508L16.0252 40.6908V40.591H15.8252ZM15.7513 40.6551L15.6099 40.5137L15.6099 40.5137L15.7513 40.6551ZM13.8272 42.5793L13.9686 42.7207L13.9686 42.7207L13.8272 42.5793ZM13.8272 43.1644L13.6858 43.3059L13.6858 43.3059L13.8272 43.1644ZM14.4124 43.1644L14.271 43.023L14.271 43.023L14.4124 43.1644ZM15.8252 41.7517H16.0252V41.2688L15.6837 41.6102L15.8252 41.7517ZM16.6528 41.7517L16.7942 41.6102L16.4528 41.2688V41.7517H16.6528ZM18.0655 43.1644L17.9241 43.3059L17.9241 43.3059L18.0655 43.1644ZM16.6528 40.591H16.4528V40.6908L16.5326 40.7508L16.6528 40.591ZM16.6528 38.2301L16.7528 38.0568L16.4528 37.8836V38.2301H16.6528ZM18.6973 39.4105L18.8959 39.3863L18.8838 39.2872L18.7973 39.2373L18.6973 39.4105ZM18.716 39.5065L18.5228 39.5583L18.5228 39.5583L18.716 39.5065ZM19.4203 42.1349L19.6134 42.0832L19.6134 42.0832L19.4203 42.1349ZM19.9271 42.4275L19.9788 42.6207L19.9788 42.6207L19.9271 42.4275ZM20.2196 41.9207L20.0265 41.9725L20.0265 41.9725L20.2196 41.9207ZM19.7025 39.9908L19.8025 39.8176L19.3844 39.5762L19.5093 40.0426L19.7025 39.9908ZM21.2494 40.884L21.1494 41.0572L21.1494 41.0572L21.2494 40.884ZM21.6632 40.1672L21.7632 39.994L21.7632 39.994L21.6632 40.1672ZM20.1163 39.2741L20.0646 39.0809L19.5982 39.2059L20.0163 39.4473L20.1163 39.2741ZM22.0462 38.757L21.9945 38.5638L21.9945 38.5638L22.0462 38.757ZM22.3388 38.2502L22.1456 38.302L22.1456 38.302L22.3388 38.2502ZM21.832 37.9576L21.8838 38.1508L21.8838 38.1508L21.832 37.9576ZM19.2036 38.6619L19.1519 38.4687L19.1519 38.4687L19.2036 38.6619ZM19.1111 38.6938L19.0111 38.867L19.0976 38.9169L19.1895 38.8778L19.1111 38.6938ZM17.0665 37.5133L16.9665 37.3401L16.6665 37.5133L16.9665 37.6865L17.0665 37.5133ZM19.1111 36.3329L19.1895 36.1489L19.0976 36.1098L19.0111 36.1597L19.1111 36.3329ZM19.2036 36.3648L19.2554 36.1716L19.2554 36.1716L19.2036 36.3648ZM21.832 37.069L21.7802 37.2622L21.7802 37.2622L21.832 37.069ZM22.3388 36.7764L22.1456 36.7247L22.1456 36.7247L22.3388 36.7764ZM22.0462 36.2696L21.9944 36.4628L21.9944 36.4628L22.0462 36.2696ZM20.1163 35.7525L20.0163 35.5793L19.5982 35.8208L20.0646 35.9457L20.1163 35.7525ZM21.6632 34.8594L21.7632 35.0327L21.7632 35.0327L21.6632 34.8594ZM21.8147 34.2942L21.6415 34.3942L21.6415 34.3942L21.8147 34.2942ZM21.2494 34.1427L21.1494 33.9695L21.1494 33.9695L21.2494 34.1427ZM19.7025 35.0359L19.5093 34.9841L19.3843 35.4505L19.8025 35.2091L19.7025 35.0359ZM20.2196 33.1059L20.4128 33.1577L20.4128 33.1577L20.2196 33.1059ZM19.927 32.5991L19.9788 32.4059L19.9788 32.4059L19.927 32.5991ZM19.4202 32.8917L19.6134 32.9435L19.6134 32.9435L19.4202 32.8917ZM18.716 35.5201L18.9091 35.5719L18.9091 35.5719L18.716 35.5201ZM18.6973 35.6162L18.7973 35.7894L18.8838 35.7395L18.8958 35.6403L18.6973 35.6162ZM16.6528 36.7966H16.4528V37.143L16.7528 36.9698L16.6528 36.7966ZM16.6528 34.4357L16.5326 34.2759L16.4528 34.3359V34.4357H16.6528ZM16.7266 34.3716L16.5852 34.2301L16.5852 34.2301L16.7266 34.3716ZM18.6507 32.4474L18.5093 32.306L18.5093 32.306L18.6507 32.4474ZM18.6507 31.8622L18.7922 31.7208L18.7922 31.7208L18.6507 31.8622ZM18.0655 31.8622L17.9241 31.7208L17.9241 31.7208L18.0655 31.8622ZM16.6528 33.275H16.4528V33.7579L16.7942 33.4165L16.6528 33.275ZM16.239 31.275C16.357 31.275 16.4528 31.3708 16.4528 31.4888H16.8528C16.8528 31.1498 16.5779 30.875 16.239 30.875V31.275ZM16.0252 31.4888C16.0252 31.3708 16.1209 31.275 16.239 31.275V30.875C15.9 30.875 15.6252 31.1498 15.6252 31.4888H16.0252ZM16.0252 33.275V31.4888H15.6252V33.275H16.0252ZM14.2709 32.0037L15.6837 33.4165L15.9666 33.1336L14.5538 31.7208L14.2709 32.0037ZM13.9686 32.0037C14.0521 31.9202 14.1875 31.9202 14.2709 32.0037L14.5538 31.7208C14.3141 31.4811 13.9255 31.4811 13.6858 31.7208L13.9686 32.0037ZM13.9686 32.306C13.8851 32.2225 13.8851 32.0872 13.9686 32.0037L13.6858 31.7208C13.4461 31.9605 13.4461 32.3492 13.6858 32.5889L13.9686 32.306ZM15.8927 34.2301L13.9686 32.306L13.6858 32.5889L15.6099 34.513L15.8927 34.2301ZM15.9453 34.2759C15.9271 34.2621 15.9095 34.2469 15.8927 34.2301L15.6099 34.513C15.64 34.5431 15.6718 34.5706 15.705 34.5956L15.9453 34.2759ZM16.0252 36.7966V34.4357H15.6252V36.7966H16.0252ZM15.9252 36.6234L13.8805 35.443L13.6805 35.7894L15.7252 36.9698L15.9252 36.6234ZM13.9791 35.592C13.974 35.5508 13.9661 35.5095 13.9551 35.4684L13.5687 35.5719C13.5748 35.5948 13.5792 35.6177 13.582 35.6403L13.9791 35.592ZM13.9551 35.4684L13.2508 32.84L12.8644 32.9435L13.5687 35.5719L13.9551 35.4684ZM13.2508 32.84C13.1631 32.5126 12.8265 32.3183 12.4991 32.406L12.6026 32.7924C12.7166 32.7618 12.8339 32.8295 12.8644 32.9435L13.2508 32.84ZM12.4991 32.406C12.1716 32.4937 11.9773 32.8303 12.065 33.1577L12.4514 33.0542C12.4209 32.9402 12.4885 32.8229 12.6026 32.7924L12.4991 32.406ZM12.065 33.1577L12.5821 35.0876L12.9685 34.984L12.4514 33.0542L12.065 33.1577ZM12.8753 34.8626L11.3285 33.9695L11.1285 34.3159L12.6753 35.209L12.8753 34.8626ZM11.3285 33.9695C11.0349 33.8 10.6595 33.9006 10.49 34.1942L10.8364 34.3942C10.8954 34.2919 11.0262 34.2569 11.1285 34.3159L11.3285 33.9695ZM10.49 34.1942C10.3205 34.4878 10.4211 34.8631 10.7147 35.0326L10.9147 34.6862C10.8124 34.6272 10.7774 34.4964 10.8364 34.3942L10.49 34.1942ZM10.7147 35.0326L12.2616 35.9258L12.4616 35.5794L10.9147 34.6862L10.7147 35.0326ZM12.3099 35.5594L10.3799 36.0765L10.4834 36.4629L12.4134 35.9458L12.3099 35.5594ZM10.3799 36.0765C10.0524 36.1643 9.85813 36.5008 9.94586 36.8283L10.3322 36.7247C10.3017 36.6107 10.3694 36.4934 10.4834 36.4629L10.3799 36.0765ZM9.94586 36.8283C10.0336 37.1557 10.3702 37.35 10.6976 37.2623L10.5941 36.8759C10.48 36.9065 10.3628 36.8388 10.3322 36.7247L9.94586 36.8283ZM10.6976 37.2623L13.326 36.558L13.2225 36.1716L10.5941 36.8759L10.6976 37.2623ZM13.326 36.558C13.3671 36.547 13.4069 36.5332 13.4452 36.5169L13.2884 36.1489C13.2674 36.1579 13.2454 36.1655 13.2225 36.1716L13.326 36.558ZM13.2668 36.5061L15.3114 37.6865L15.5114 37.3401L13.4668 36.1597L13.2668 36.5061ZM15.3114 37.3401L13.2667 38.5206L13.4667 38.867L15.5114 37.6865L15.3114 37.3401ZM13.4451 38.5098C13.4068 38.4935 13.3671 38.4797 13.326 38.4687L13.2224 38.8551C13.2454 38.8612 13.2673 38.8689 13.2884 38.8778L13.4451 38.5098ZM13.326 38.4687L10.6976 37.7645L10.594 38.1508L13.2224 38.8551L13.326 38.4687ZM10.6976 37.7645C10.3701 37.6767 10.0336 37.871 9.94583 38.1985L10.3322 38.302C10.3628 38.188 10.48 38.1203 10.594 38.1508L10.6976 37.7645ZM9.94583 38.1985C9.8581 38.5259 10.0524 38.8625 10.3799 38.9502L10.4834 38.5638C10.3693 38.5333 10.3016 38.4161 10.3322 38.302L9.94583 38.1985ZM10.3799 38.9502L12.3098 39.4673L12.4133 39.081L10.4834 38.5638L10.3799 38.9502ZM12.2615 39.1009L10.7146 39.9941L10.9146 40.3405L12.4615 39.4474L12.2615 39.1009ZM10.7146 39.9941C10.4211 40.1636 10.3205 40.5389 10.49 40.8325L10.8364 40.6325C10.7773 40.5303 10.8124 40.3995 10.9146 40.3405L10.7146 39.9941ZM10.49 40.8325C10.6595 41.1261 11.0349 41.2267 11.3284 41.0572L11.1284 40.7108C11.0262 40.7698 10.8954 40.7348 10.8364 40.6325L10.49 40.8325ZM11.3284 41.0572L12.8753 40.1641L12.6753 39.8177L11.1284 40.7108L11.3284 41.0572ZM12.5821 39.9391L12.065 41.869L12.4514 41.9725L12.9685 40.0426L12.5821 39.9391ZM12.065 41.869C11.9773 42.1964 12.1716 42.533 12.499 42.6207L12.6026 42.2344C12.4885 42.2038 12.4208 42.0866 12.4514 41.9725L12.065 41.869ZM12.499 42.6207C12.8265 42.7085 13.163 42.5142 13.2508 42.1867L12.8644 42.0832C12.8338 42.1973 12.7166 42.2649 12.6026 42.2344L12.499 42.6207ZM13.2508 42.1867L13.955 39.5583L13.5687 39.4548L12.8644 42.0832L13.2508 42.1867ZM13.955 39.5583C13.9661 39.5172 13.974 39.4759 13.979 39.4347L13.582 39.3864C13.5792 39.409 13.5748 39.4319 13.5687 39.4548L13.955 39.5583ZM13.8805 39.5837L15.9252 38.4033L15.7252 38.0568L13.6805 39.2373L13.8805 39.5837ZM16.0252 40.591V38.23H15.6252V40.591H16.0252ZM15.8927 40.7966C15.9095 40.7798 15.9271 40.7646 15.9454 40.7508L15.705 40.4311C15.6718 40.4561 15.64 40.4836 15.6099 40.5137L15.8927 40.7966ZM13.9686 42.7207L15.8927 40.7966L15.6099 40.5137L13.6858 42.4378L13.9686 42.7207ZM13.9686 43.023C13.8851 42.9395 13.8851 42.8042 13.9686 42.7207L13.6858 42.4378C13.4461 42.6775 13.4461 43.0662 13.6858 43.3059L13.9686 43.023ZM14.271 43.023C14.1875 43.1065 14.0521 43.1065 13.9686 43.023L13.6858 43.3059C13.9255 43.5456 14.3141 43.5456 14.5538 43.3059L14.271 43.023ZM15.6837 41.6102L14.271 43.023L14.5538 43.3059L15.9666 41.8931L15.6837 41.6102ZM16.0252 43.5379V41.7517H15.6252V43.5379H16.0252ZM16.239 43.7517C16.1209 43.7517 16.0252 43.656 16.0252 43.5379H15.6252C15.6252 43.8769 15.9 44.1517 16.239 44.1517V43.7517ZM16.4528 43.5379C16.4528 43.656 16.357 43.7517 16.239 43.7517V44.1517C16.5779 44.1517 16.8528 43.8769 16.8528 43.5379H16.4528ZM16.4528 41.7517V43.5379H16.8528V41.7517H16.4528ZM18.207 43.023L16.7942 41.6102L16.5113 41.8931L17.9241 43.3059L18.207 43.023ZM18.5093 43.023C18.4258 43.1065 18.2905 43.1065 18.207 43.023L17.9241 43.3059C18.1638 43.5456 18.5525 43.5456 18.7922 43.3059L18.5093 43.023ZM18.5093 42.7207C18.5928 42.8042 18.5928 42.9395 18.5093 43.023L18.7922 43.3059C19.0319 43.0662 19.0319 42.6775 18.7922 42.4378L18.5093 42.7207ZM16.5852 40.7966L18.5093 42.7207L18.7922 42.4378L16.868 40.5137L16.5852 40.7966ZM16.5326 40.7508C16.5508 40.7646 16.5684 40.7798 16.5852 40.7966L16.868 40.5137C16.838 40.4836 16.8062 40.4561 16.7729 40.4311L16.5326 40.7508ZM16.4528 38.2301V40.591H16.8528V38.2301H16.4528ZM16.5528 38.4033L18.5973 39.5837L18.7973 39.2373L16.7528 38.0568L16.5528 38.4033ZM18.4988 39.4346C18.5038 39.4759 18.5118 39.5172 18.5228 39.5583L18.9092 39.4548C18.903 39.4319 18.8986 39.409 18.8959 39.3863L18.4988 39.4346ZM18.5228 39.5583L19.2271 42.1867L19.6134 42.0832L18.9092 39.4548L18.5228 39.5583ZM19.2271 42.1867C19.3148 42.5141 19.6514 42.7085 19.9788 42.6207L19.8753 42.2344C19.7612 42.2649 19.644 42.1972 19.6134 42.0832L19.2271 42.1867ZM19.9788 42.6207C20.3063 42.533 20.5006 42.1964 20.4128 41.869L20.0265 41.9725C20.057 42.0866 19.9893 42.2038 19.8753 42.2344L19.9788 42.6207ZM20.4128 41.869L19.8957 39.9391L19.5093 40.0426L20.0265 41.9725L20.4128 41.869ZM19.6025 40.164L21.1494 41.0572L21.3494 40.7108L19.8025 39.8176L19.6025 40.164ZM21.1494 41.0572C21.443 41.2267 21.8184 41.1261 21.9879 40.8325L21.6415 40.6325C21.5825 40.7348 21.4517 40.7698 21.3494 40.7108L21.1494 41.0572ZM21.9879 40.8325C22.1574 40.5389 22.0568 40.1635 21.7632 39.994L21.5632 40.3404C21.6655 40.3995 21.7005 40.5302 21.6415 40.6325L21.9879 40.8325ZM21.7632 39.994L20.2163 39.1009L20.0163 39.4473L21.5632 40.3405L21.7632 39.994ZM20.1681 39.4673L22.098 38.9502L21.9945 38.5638L20.0646 39.0809L20.1681 39.4673ZM22.098 38.9502C22.4254 38.8625 22.6197 38.5259 22.532 38.1985L22.1456 38.302C22.1762 38.416 22.1085 38.5333 21.9945 38.5638L22.098 38.9502ZM22.532 38.1985C22.4443 37.871 22.1077 37.6767 21.7803 37.7644L21.8838 38.1508C21.9979 38.1202 22.1151 38.1879 22.1456 38.302L22.532 38.1985ZM21.7803 37.7644L19.1519 38.4687L19.2554 38.8551L21.8838 38.1508L21.7803 37.7644ZM19.1519 38.4687C19.1108 38.4797 19.071 38.4935 19.0328 38.5098L19.1895 38.8778C19.2105 38.8688 19.2325 38.8612 19.2554 38.8551L19.1519 38.4687ZM19.2111 38.5206L17.1665 37.3401L16.9665 37.6865L19.0111 38.867L19.2111 38.5206ZM17.1665 37.6865L19.2111 36.5061L19.0111 36.1597L16.9665 37.3401L17.1665 37.6865ZM19.0328 36.5169C19.071 36.5332 19.1108 36.5469 19.1518 36.5579L19.2554 36.1716C19.2325 36.1654 19.2105 36.1578 19.1895 36.1489L19.0328 36.5169ZM19.1518 36.5579L21.7802 37.2622L21.8838 36.8758L19.2554 36.1716L19.1518 36.5579ZM21.7802 37.2622C22.1077 37.35 22.4442 37.1556 22.532 36.8282L22.1456 36.7247C22.115 36.8387 21.9978 36.9064 21.8838 36.8758L21.7802 37.2622ZM22.532 36.8282C22.6197 36.5008 22.4254 36.1642 22.098 36.0765L21.9944 36.4628C22.1085 36.4934 22.1762 36.6106 22.1456 36.7247L22.532 36.8282ZM22.098 36.0765L20.1681 35.5594L20.0646 35.9457L21.9944 36.4628L22.098 36.0765ZM20.2163 35.9257L21.7632 35.0327L21.5632 34.6862L20.0163 35.5793L20.2163 35.9257ZM21.7632 35.0327C22.0568 34.8632 22.1574 34.4878 21.9879 34.1942L21.6415 34.3942C21.7005 34.4965 21.6655 34.6272 21.5632 34.6862L21.7632 35.0327ZM21.9879 34.1942C21.8184 33.9006 21.443 33.8 21.1494 33.9695L21.3494 34.3159C21.4517 34.2569 21.5824 34.2919 21.6415 34.3942L21.9879 34.1942ZM21.1494 33.9695L19.6025 34.8627L19.8025 35.2091L21.3494 34.3159L21.1494 33.9695ZM19.8957 35.0876L20.4128 33.1577L20.0264 33.0541L19.5093 34.9841L19.8957 35.0876ZM20.4128 33.1577C20.5005 32.8302 20.3062 32.4937 19.9788 32.4059L19.8753 32.7923C19.9893 32.8229 20.057 32.9401 20.0264 33.0541L20.4128 33.1577ZM19.9788 32.4059C19.6513 32.3182 19.3148 32.5125 19.227 32.8399L19.6134 32.9435C19.644 32.8294 19.7612 32.7617 19.8753 32.7923L19.9788 32.4059ZM19.227 32.8399L18.5228 35.4683L18.9091 35.5719L19.6134 32.9435L19.227 32.8399ZM18.5228 35.4683C18.5117 35.5095 18.5038 35.5508 18.4988 35.5921L18.8958 35.6403C18.8986 35.6177 18.903 35.5948 18.9091 35.5719L18.5228 35.4683ZM18.5973 35.443L16.5528 36.6234L16.7528 36.9698L18.7973 35.7894L18.5973 35.443ZM16.4528 34.4357V36.7966H16.8528V34.4357H16.4528ZM16.5852 34.2301C16.5684 34.2469 16.5508 34.2621 16.5326 34.2759L16.7729 34.5956C16.8062 34.5706 16.838 34.5431 16.868 34.513L16.5852 34.2301ZM18.5093 32.306L16.5852 34.2301L16.868 34.513L18.7922 32.5889L18.5093 32.306ZM18.5093 32.0037C18.5928 32.0872 18.5928 32.2225 18.5093 32.306L18.7922 32.5889C19.0319 32.3492 19.0319 31.9605 18.7922 31.7208L18.5093 32.0037ZM18.207 32.0037C18.2905 31.9202 18.4258 31.9202 18.5093 32.0037L18.7922 31.7208C18.5525 31.4811 18.1638 31.4811 17.9241 31.7208L18.207 32.0037ZM16.7942 33.4165L18.207 32.0037L17.9241 31.7208L16.5113 33.1336L16.7942 33.4165ZM16.4528 31.4888V33.275H16.8528V31.4888H16.4528Z" fill="#3B4668" fill-opacity="0.8" mask="url(#path-2-outside-1_103_894)"/>
<mask id="path-4-outside-2_103_894" maskUnits="userSpaceOnUse" x="25" y="29" width="11" height="12" fill="black">
<rect fill="white" x="25" y="29" width="11" height="12"/>
<path fill-rule="evenodd" clip-rule="evenodd" d="M31.2545 30.4138C31.2545 30.1853 31.0692 30 30.8407 30C30.6122 30 30.4269 30.1853 30.4269 30.4138V31.5778L29.4875 30.6384C29.3259 30.4768 29.0639 30.4768 28.9023 30.6384C28.7408 30.8 28.7408 31.062 28.9023 31.2236L30.353 32.6743C30.3765 32.6977 30.4012 32.7191 30.4269 32.7385V34.3757L29.009 33.5571C29.0051 33.5251 28.9989 33.4931 28.9904 33.4611L28.4594 31.4794C28.4002 31.2586 28.1733 31.1276 27.9526 31.1868C27.7318 31.2459 27.6008 31.4728 27.66 31.6936L28.0038 32.9767L26.9958 32.3947C26.7979 32.2805 26.5448 32.3483 26.4305 32.5462C26.3163 32.7441 26.3841 32.9972 26.582 33.1115L27.5901 33.6935L26.3068 34.0373C26.0861 34.0965 25.9551 34.3234 26.0142 34.5441C26.0734 34.7649 26.3003 34.8959 26.521 34.8367L28.5027 34.3057C28.5347 34.2971 28.5656 34.2864 28.5953 34.2738L30.0131 35.0924L28.5952 35.9111C28.5656 35.8984 28.5347 35.8878 28.5027 35.8792L26.521 35.3482C26.3002 35.289 26.0734 35.42 26.0142 35.6408C25.9551 35.8615 26.0861 36.0884 26.3068 36.1476L27.59 36.4914L26.5819 37.0734C26.384 37.1877 26.3162 37.4408 26.4305 37.6387C26.5447 37.8366 26.7978 37.9044 26.9957 37.7901L28.0038 37.2081L27.66 38.4913C27.6008 38.7121 27.7318 38.939 27.9526 38.9981C28.1733 39.0573 28.4002 38.9263 28.4593 38.7055L28.9903 36.7238C28.9989 36.6918 29.0051 36.6597 29.009 36.6278L30.4269 35.8091V37.4464C30.4012 37.4657 30.3765 37.4871 30.353 37.5106L28.9024 38.9613C28.7408 39.1229 28.7408 39.3849 28.9024 39.5464C29.064 39.708 29.326 39.708 29.4875 39.5464L30.4269 38.6071V39.7711C30.4269 39.9996 30.6122 40.1849 30.8407 40.1849C31.0692 40.1849 31.2545 39.9996 31.2545 39.7711V38.6071L32.1939 39.5464C32.3555 39.708 32.6175 39.708 32.7791 39.5464C32.9407 39.3849 32.9407 39.1229 32.7791 38.9613L31.3284 37.5106C31.3049 37.4871 31.2802 37.4657 31.2545 37.4464V35.8091L32.6724 36.6278C32.6763 36.6597 32.6825 36.6918 32.691 36.7238L33.222 38.7055C33.2812 38.9262 33.5081 39.0572 33.7288 38.9981C33.9496 38.9389 34.0806 38.712 34.0214 38.4913L33.6776 37.2081L34.6856 37.7901C34.8836 37.9044 35.1366 37.8366 35.2509 37.6386C35.3652 37.4407 35.2973 37.1877 35.0994 37.0734L34.0914 36.4914L35.3746 36.1476C35.5953 36.0884 35.7263 35.8615 35.6672 35.6408C35.608 35.42 35.3811 35.289 35.1604 35.3482L33.1787 35.8792C33.1467 35.8877 33.1158 35.8984 33.0862 35.911L31.6683 35.0924L33.0862 34.2738C33.1158 34.2864 33.1467 34.2971 33.1787 34.3057L35.1603 34.8367C35.3811 34.8958 35.608 34.7648 35.6671 34.5441C35.7263 34.3233 35.5953 34.0964 35.3745 34.0373L34.0914 33.6935L35.0994 33.1115C35.2973 32.9972 35.3651 32.7441 35.2508 32.5462C35.1366 32.3483 34.8835 32.2805 34.6856 32.3948L33.6775 32.9768L34.0214 31.6935C34.0805 31.4728 33.9495 31.2459 33.7288 31.1868C33.508 31.1276 33.2811 31.2586 33.222 31.4794L32.691 33.461C32.6824 33.493 32.6762 33.5251 32.6723 33.5571L31.2545 34.3757V32.7385C31.2802 32.7191 31.3049 32.6977 31.3284 32.6743L32.7791 31.2236C32.9406 31.062 32.9406 30.8 32.7791 30.6384C32.6175 30.4768 32.3555 30.4768 32.1939 30.6384L31.2545 31.5778V30.4138Z"/>
</mask>
<path fill-rule="evenodd" clip-rule="evenodd" d="M31.2545 30.4138C31.2545 30.1853 31.0692 30 30.8407 30C30.6122 30 30.4269 30.1853 30.4269 30.4138V31.5778L29.4875 30.6384C29.3259 30.4768 29.0639 30.4768 28.9023 30.6384C28.7408 30.8 28.7408 31.062 28.9023 31.2236L30.353 32.6743C30.3765 32.6977 30.4012 32.7191 30.4269 32.7385V34.3757L29.009 33.5571C29.0051 33.5251 28.9989 33.4931 28.9904 33.4611L28.4594 31.4794C28.4002 31.2586 28.1733 31.1276 27.9526 31.1868C27.7318 31.2459 27.6008 31.4728 27.66 31.6936L28.0038 32.9767L26.9958 32.3947C26.7979 32.2805 26.5448 32.3483 26.4305 32.5462C26.3163 32.7441 26.3841 32.9972 26.582 33.1115L27.5901 33.6935L26.3068 34.0373C26.0861 34.0965 25.9551 34.3234 26.0142 34.5441C26.0734 34.7649 26.3003 34.8959 26.521 34.8367L28.5027 34.3057C28.5347 34.2971 28.5656 34.2864 28.5953 34.2738L30.0131 35.0924L28.5952 35.9111C28.5656 35.8984 28.5347 35.8878 28.5027 35.8792L26.521 35.3482C26.3002 35.289 26.0734 35.42 26.0142 35.6408C25.9551 35.8615 26.0861 36.0884 26.3068 36.1476L27.59 36.4914L26.5819 37.0734C26.384 37.1877 26.3162 37.4408 26.4305 37.6387C26.5447 37.8366 26.7978 37.9044 26.9957 37.7901L28.0038 37.2081L27.66 38.4913C27.6008 38.7121 27.7318 38.939 27.9526 38.9981C28.1733 39.0573 28.4002 38.9263 28.4593 38.7055L28.9903 36.7238C28.9989 36.6918 29.0051 36.6597 29.009 36.6278L30.4269 35.8091V37.4464C30.4012 37.4657 30.3765 37.4871 30.353 37.5106L28.9024 38.9613C28.7408 39.1229 28.7408 39.3849 28.9024 39.5464C29.064 39.708 29.326 39.708 29.4875 39.5464L30.4269 38.6071V39.7711C30.4269 39.9996 30.6122 40.1849 30.8407 40.1849C31.0692 40.1849 31.2545 39.9996 31.2545 39.7711V38.6071L32.1939 39.5464C32.3555 39.708 32.6175 39.708 32.7791 39.5464C32.9407 39.3849 32.9407 39.1229 32.7791 38.9613L31.3284 37.5106C31.3049 37.4871 31.2802 37.4657 31.2545 37.4464V35.8091L32.6724 36.6278C32.6763 36.6597 32.6825 36.6918 32.691 36.7238L33.222 38.7055C33.2812 38.9262 33.5081 39.0572 33.7288 38.9981C33.9496 38.9389 34.0806 38.712 34.0214 38.4913L33.6776 37.2081L34.6856 37.7901C34.8836 37.9044 35.1366 37.8366 35.2509 37.6386C35.3652 37.4407 35.2973 37.1877 35.0994 37.0734L34.0914 36.4914L35.3746 36.1476C35.5953 36.0884 35.7263 35.8615 35.6672 35.6408C35.608 35.42 35.3811 35.289 35.1604 35.3482L33.1787 35.8792C33.1467 35.8877 33.1158 35.8984 33.0862 35.911L31.6683 35.0924L33.0862 34.2738C33.1158 34.2864 33.1467 34.2971 33.1787 34.3057L35.1603 34.8367C35.3811 34.8958 35.608 34.7648 35.6671 34.5441C35.7263 34.3233 35.5953 34.0964 35.3745 34.0373L34.0914 33.6935L35.0994 33.1115C35.2973 32.9972 35.3651 32.7441 35.2508 32.5462C35.1366 32.3483 34.8835 32.2805 34.6856 32.3948L33.6775 32.9768L34.0214 31.6935C34.0805 31.4728 33.9495 31.2459 33.7288 31.1868C33.508 31.1276 33.2811 31.2586 33.222 31.4794L32.691 33.461C32.6824 33.493 32.6762 33.5251 32.6723 33.5571L31.2545 34.3757V32.7385C31.2802 32.7191 31.3049 32.6977 31.3284 32.6743L32.7791 31.2236C32.9406 31.062 32.9406 30.8 32.7791 30.6384C32.6175 30.4768 32.3555 30.4768 32.1939 30.6384L31.2545 31.5778V30.4138Z" fill="#3B4668" fill-opacity="0.8"/>
<path d="M30.4269 31.5778L30.3562 31.6485L30.5269 31.8192V31.5778H30.4269ZM29.4875 30.6384L29.5582 30.5677L29.5582 30.5677L29.4875 30.6384ZM28.9023 30.6384L28.8316 30.5677L28.8316 30.5677L28.9023 30.6384ZM28.9023 31.2236L28.9731 31.1529L28.9731 31.1529L28.9023 31.2236ZM30.353 32.6743L30.4238 32.6036L30.4237 32.6036L30.353 32.6743ZM30.4269 32.7385H30.5269V32.6886L30.487 32.6586L30.4269 32.7385ZM30.4269 34.3757L30.3769 34.4623L30.5269 34.5489V34.3757H30.4269ZM29.009 33.5571L28.9097 33.5692L28.9158 33.6187L28.959 33.6437L29.009 33.5571ZM28.9904 33.4611L29.087 33.4352L29.087 33.4352L28.9904 33.4611ZM28.4594 31.4794L28.3628 31.5053L28.3628 31.5053L28.4594 31.4794ZM27.9526 31.1868L27.9785 31.2834L27.9785 31.2834L27.9526 31.1868ZM27.66 31.6936L27.5634 31.7195L27.5634 31.7195L27.66 31.6936ZM28.0038 32.9767L27.9538 33.0633L28.1629 33.184L28.1004 32.9508L28.0038 32.9767ZM26.9958 32.3947L27.0458 32.3081L27.0458 32.3081L26.9958 32.3947ZM26.4305 32.5462L26.5171 32.5962L26.5171 32.5962L26.4305 32.5462ZM26.582 33.1115L26.532 33.1981L26.532 33.1981L26.582 33.1115ZM27.5901 33.6935L27.616 33.7901L27.8492 33.7276L27.6401 33.6069L27.5901 33.6935ZM26.3068 34.0373L26.3327 34.1339L26.3327 34.1339L26.3068 34.0373ZM26.0142 34.5441L26.1108 34.5182L26.1108 34.5182L26.0142 34.5441ZM26.521 34.8367L26.5469 34.9333L26.5469 34.9333L26.521 34.8367ZM28.5027 34.3057L28.4768 34.2091L28.4768 34.2091L28.5027 34.3057ZM28.5953 34.2738L28.6453 34.1872L28.602 34.1622L28.5561 34.1818L28.5953 34.2738ZM30.0131 35.0924L30.0631 35.179L30.2131 35.0924L30.0631 35.0058L30.0131 35.0924ZM28.5952 35.9111L28.556 36.0031L28.602 36.0226L28.6452 35.9977L28.5952 35.9111ZM28.5027 35.8792L28.5286 35.7826L28.5286 35.7826L28.5027 35.8792ZM26.521 35.3482L26.5469 35.2516L26.5469 35.2516L26.521 35.3482ZM26.0142 35.6408L25.9176 35.6149L25.9176 35.6149L26.0142 35.6408ZM26.3068 36.1476L26.2809 36.2442L26.2809 36.2442L26.3068 36.1476ZM27.59 36.4914L27.64 36.578L27.8491 36.4573L27.6159 36.3948L27.59 36.4914ZM26.5819 37.0734L26.5319 36.9868L26.5319 36.9868L26.5819 37.0734ZM26.4305 37.6387L26.3439 37.6887L26.3439 37.6887L26.4305 37.6387ZM26.9957 37.7901L27.0457 37.8767L27.0457 37.8767L26.9957 37.7901ZM28.0038 37.2081L28.1004 37.234L28.1629 37.0008L27.9538 37.1215L28.0038 37.2081ZM27.66 38.4913L27.7566 38.5172L27.7566 38.5172L27.66 38.4913ZM27.9526 38.9981L27.9267 39.0947L27.9267 39.0947L27.9526 38.9981ZM28.4593 38.7055L28.5559 38.7314L28.5559 38.7314L28.4593 38.7055ZM28.9903 36.7238L29.0869 36.7497L29.0869 36.7497L28.9903 36.7238ZM29.009 36.6278L28.959 36.5412L28.9157 36.5661L28.9097 36.6157L29.009 36.6278ZM30.4269 35.8091H30.5269V35.6359L30.3769 35.7225L30.4269 35.8091ZM30.4269 37.4464L30.487 37.5263L30.5269 37.4963V37.4464H30.4269ZM30.353 37.5106L30.2823 37.4399L30.2823 37.4399L30.353 37.5106ZM28.9024 38.9613L28.9731 39.032L28.9731 39.032L28.9024 38.9613ZM28.9024 39.5464L28.9731 39.4757L28.9731 39.4757L28.9024 39.5464ZM29.4875 39.5464L29.4168 39.4757L29.4168 39.4757L29.4875 39.5464ZM30.4269 38.6071H30.5269V38.3657L30.3562 38.5364L30.4269 38.6071ZM31.2545 38.6071L31.3252 38.5364L31.1545 38.3657V38.6071H31.2545ZM32.1939 39.5464L32.2646 39.4757L32.2646 39.4757L32.1939 39.5464ZM32.7791 39.5464L32.7083 39.4757L32.7083 39.4757L32.7791 39.5464ZM31.2545 37.4464H31.1545V37.4963L31.1944 37.5263L31.2545 37.4464ZM31.2545 35.8091L31.3045 35.7225L31.1545 35.6359V35.8091H31.2545ZM32.6724 36.6278L32.7717 36.6157L32.7656 36.5661L32.7224 36.5411L32.6724 36.6278ZM32.691 36.7238L32.5944 36.7497L32.5944 36.7497L32.691 36.7238ZM33.222 38.7055L33.1254 38.7314L33.1254 38.7314L33.222 38.7055ZM33.7288 38.9981L33.7029 38.9015L33.7029 38.9015L33.7288 38.9981ZM34.0214 38.4913L33.9248 38.5172L33.9248 38.5172L34.0214 38.4913ZM33.6776 37.2081L33.7276 37.1215L33.5185 37.0008L33.581 37.234L33.6776 37.2081ZM34.6856 37.7901L34.6356 37.8767L34.6356 37.8767L34.6856 37.7901ZM35.2509 37.6386L35.1643 37.5886L35.1643 37.5886L35.2509 37.6386ZM35.0994 37.0734L35.1494 36.9868L35.1494 36.9868L35.0994 37.0734ZM34.0914 36.4914L34.0655 36.3948L33.8323 36.4573L34.0414 36.578L34.0914 36.4914ZM35.3746 36.1476L35.4004 36.2441L35.4004 36.2441L35.3746 36.1476ZM35.6672 35.6408L35.5706 35.6666L35.5706 35.6666L35.6672 35.6408ZM35.1604 35.3482L35.1345 35.2516L35.1345 35.2516L35.1604 35.3482ZM33.1787 35.8792L33.2046 35.9758L33.2046 35.9758L33.1787 35.8792ZM33.0862 35.911L33.0362 35.9976L33.0794 36.0226L33.1254 36.003L33.0862 35.911ZM31.6683 35.0924L31.6183 35.0058L31.4683 35.0924L31.6183 35.179L31.6683 35.0924ZM33.0862 34.2738L33.1253 34.1818L33.0794 34.1622L33.0362 34.1872L33.0862 34.2738ZM33.1787 34.3057L33.1528 34.4023L33.1528 34.4023L33.1787 34.3057ZM35.1603 34.8367L35.1345 34.9333L35.1345 34.9333L35.1603 34.8367ZM35.6671 34.5441L35.5705 34.5182L35.5705 34.5182L35.6671 34.5441ZM35.3745 34.0373L35.3486 34.1339L35.3486 34.1339L35.3745 34.0373ZM34.0914 33.6935L34.0414 33.6069L33.8323 33.7276L34.0655 33.7901L34.0914 33.6935ZM35.0994 33.1115L35.1494 33.1981L35.1494 33.1981L35.0994 33.1115ZM35.2508 32.5462L35.1642 32.5962L35.1642 32.5962L35.2508 32.5462ZM34.6856 32.3948L34.7356 32.4814L34.6856 32.3948ZM33.6775 32.9768L33.5809 32.9509L33.5185 33.1841L33.7275 33.0634L33.6775 32.9768ZM34.0214 31.6935L34.118 31.7194L34.118 31.7194L34.0214 31.6935ZM33.222 31.4794L33.1254 31.4535L33.1254 31.4535L33.222 31.4794ZM32.691 33.461L32.7876 33.4869L32.7876 33.4869L32.691 33.461ZM32.6723 33.5571L32.7223 33.6437L32.7656 33.6188L32.7716 33.5692L32.6723 33.5571ZM31.2545 34.3757H31.1545V34.5489L31.3045 34.4623L31.2545 34.3757ZM31.2545 32.7385L31.1944 32.6585L31.1545 32.6885V32.7385H31.2545ZM31.3284 32.6743L31.2576 32.6036L31.2576 32.6036L31.3284 32.6743ZM32.7791 31.2236L32.8498 31.2943L32.8498 31.2943L32.7791 31.2236ZM32.7791 30.6384L32.8498 30.5677L32.8498 30.5677L32.7791 30.6384ZM32.1939 30.6384L32.2646 30.7091L32.2646 30.7091L32.1939 30.6384ZM31.2545 31.5778H31.1545V31.8192L31.3252 31.6485L31.2545 31.5778ZM30.8407 30.1C31.014 30.1 31.1545 30.2405 31.1545 30.4138H31.3545C31.3545 30.13 31.1245 29.9 30.8407 29.9V30.1ZM30.5269 30.4138C30.5269 30.2405 30.6674 30.1 30.8407 30.1V29.9C30.557 29.9 30.3269 30.13 30.3269 30.4138H30.5269ZM30.5269 31.5778V30.4138H30.3269V31.5778H30.5269ZM29.4168 30.7091L30.3562 31.6485L30.4976 31.5071L29.5582 30.5677L29.4168 30.7091ZM28.9731 30.7091C29.0956 30.5866 29.2943 30.5866 29.4168 30.7091L29.5582 30.5677C29.3576 30.3671 29.0323 30.3671 28.8316 30.5677L28.9731 30.7091ZM28.9731 31.1529C28.8505 31.0304 28.8505 30.8317 28.9731 30.7091L28.8316 30.5677C28.631 30.7684 28.631 31.0937 28.8316 31.2943L28.9731 31.1529ZM30.4237 32.6036L28.9731 31.1529L28.8316 31.2943L30.2823 32.745L30.4237 32.6036ZM30.487 32.6586C30.465 32.642 30.4439 32.6237 30.4238 32.6036L30.2823 32.745C30.3091 32.7718 30.3373 32.7963 30.3668 32.8184L30.487 32.6586ZM30.5269 34.3757V32.7385H30.3269V34.3757H30.5269ZM30.4769 34.2891L29.059 33.4705L28.959 33.6437L30.3769 34.4623L30.4769 34.2891ZM29.1083 33.545C29.1038 33.5084 29.0967 33.4717 29.087 33.4352L28.8938 33.4869C28.9011 33.5144 28.9064 33.5419 28.9097 33.5692L29.1083 33.545ZM29.087 33.4352L28.556 31.4535L28.3628 31.5053L28.8938 33.487L29.087 33.4352ZM28.556 31.4535C28.4825 31.1794 28.2008 31.0168 27.9267 31.0902L27.9785 31.2834C28.1459 31.2385 28.3179 31.3379 28.3628 31.5053L28.556 31.4535ZM27.9267 31.0902C27.6526 31.1636 27.4899 31.4454 27.5634 31.7195L27.7566 31.6677C27.7117 31.5003 27.8111 31.3282 27.9785 31.2834L27.9267 31.0902ZM27.5634 31.7195L27.9072 33.0026L28.1004 32.9508L27.7566 31.6677L27.5634 31.7195ZM28.0538 32.8901L27.0458 32.3081L26.9458 32.4813L27.9538 33.0633L28.0538 32.8901ZM27.0458 32.3081C26.8 32.1663 26.4858 32.2505 26.3439 32.4962L26.5171 32.5962C26.6038 32.4461 26.7957 32.3947 26.9458 32.4813L27.0458 32.3081ZM26.3439 32.4962C26.202 32.7419 26.2862 33.0562 26.532 33.1981L26.632 33.0249C26.4819 32.9382 26.4305 32.7463 26.5171 32.5962L26.3439 32.4962ZM26.532 33.1981L27.5401 33.7801L27.6401 33.6069L26.632 33.0249L26.532 33.1981ZM27.5642 33.5969L26.2809 33.9407L26.3327 34.1339L27.616 33.7901L27.5642 33.5969ZM26.2809 33.9407C26.0069 34.0142 25.8442 34.2959 25.9176 34.57L26.1108 34.5182C26.066 34.3508 26.1653 34.1788 26.3327 34.1339L26.2809 33.9407ZM25.9176 34.57C25.9911 34.8441 26.2728 35.0067 26.5469 34.9333L26.4951 34.7401C26.3277 34.785 26.1557 34.6856 26.1108 34.5182L25.9176 34.57ZM26.5469 34.9333L28.5286 34.4023L28.4768 34.2091L26.4951 34.7401L26.5469 34.9333ZM28.5286 34.4023C28.5652 34.3925 28.6005 34.3803 28.6344 34.3658L28.5561 34.1818C28.5307 34.1926 28.5043 34.2018 28.4768 34.2091L28.5286 34.4023ZM28.5453 34.3604L29.9631 35.179L30.0631 35.0058L28.6453 34.1872L28.5453 34.3604ZM29.9631 35.0058L28.5452 35.8245L28.6452 35.9977L30.0631 35.179L29.9631 35.0058ZM28.6344 35.8191C28.6004 35.8046 28.5651 35.7924 28.5286 35.7826L28.4768 35.9758C28.5043 35.9831 28.5307 35.9923 28.556 36.0031L28.6344 35.8191ZM28.5286 35.7826L26.5469 35.2516L26.4951 35.4448L28.4768 35.9758L28.5286 35.7826ZM26.5469 35.2516C26.2728 35.1782 25.9911 35.3408 25.9176 35.6149L26.1108 35.6667C26.1556 35.4993 26.3277 35.3999 26.4951 35.4448L26.5469 35.2516ZM25.9176 35.6149C25.8442 35.889 26.0068 36.1707 26.2809 36.2442L26.3327 36.051C26.1653 36.0061 26.0659 35.8341 26.1108 35.6667L25.9176 35.6149ZM26.2809 36.2442L27.5641 36.588L27.6159 36.3948L26.3327 36.051L26.2809 36.2442ZM27.54 36.4048L26.5319 36.9868L26.6319 37.16L27.64 36.578L27.54 36.4048ZM26.5319 36.9868C26.2862 37.1287 26.202 37.4429 26.3439 37.6887L26.5171 37.5887C26.4304 37.4386 26.4819 37.2467 26.6319 37.16L26.5319 36.9868ZM26.3439 37.6887C26.4858 37.9344 26.8 38.0186 27.0457 37.8767L26.9457 37.7035C26.7956 37.7902 26.6037 37.7388 26.5171 37.5887L26.3439 37.6887ZM27.0457 37.8767L28.0538 37.2947L27.9538 37.1215L26.9457 37.7035L27.0457 37.8767ZM27.9072 37.1822L27.5634 38.4654L27.7566 38.5172L28.1004 37.234L27.9072 37.1822ZM27.5634 38.4654C27.4899 38.7395 27.6526 39.0213 27.9267 39.0947L27.9784 38.9015C27.811 38.8567 27.7117 38.6846 27.7566 38.5172L27.5634 38.4654ZM27.9267 39.0947C28.2008 39.1681 28.4825 39.0055 28.5559 38.7314L28.3628 38.6796C28.3179 38.847 28.1458 38.9464 27.9784 38.9015L27.9267 39.0947ZM28.5559 38.7314L29.0869 36.7497L28.8937 36.6979L28.3628 38.6796L28.5559 38.7314ZM29.0869 36.7497C29.0967 36.7132 29.1038 36.6765 29.1082 36.6399L28.9097 36.6157C28.9064 36.643 28.9011 36.6705 28.8937 36.6979L29.0869 36.7497ZM29.059 36.7144L30.4769 35.8957L30.3769 35.7225L28.959 36.5412L29.059 36.7144ZM30.5269 37.4464V35.8091H30.3269V37.4464H30.5269ZM30.4238 37.5813C30.4439 37.5612 30.465 37.5429 30.487 37.5263L30.3668 37.3665C30.3373 37.3886 30.3091 37.4131 30.2823 37.4399L30.4238 37.5813ZM28.9731 39.032L30.4238 37.5813L30.2823 37.4399L28.8316 38.8905L28.9731 39.032ZM28.9731 39.4757C28.8505 39.3532 28.8505 39.1545 28.9731 39.032L28.8316 38.8905C28.631 39.0912 28.631 39.4165 28.8316 39.6172L28.9731 39.4757ZM29.4168 39.4757C29.2943 39.5983 29.0956 39.5983 28.9731 39.4757L28.8316 39.6172C29.0323 39.8178 29.3576 39.8178 29.5583 39.6172L29.4168 39.4757ZM30.3562 38.5364L29.4168 39.4757L29.5583 39.6172L30.4976 38.6778L30.3562 38.5364ZM30.5269 39.7711V38.6071H30.3269V39.7711H30.5269ZM30.8407 40.0849C30.6674 40.0849 30.5269 39.9444 30.5269 39.7711H30.3269C30.3269 40.0548 30.557 40.2849 30.8407 40.2849V40.0849ZM31.1545 39.7711C31.1545 39.9444 31.014 40.0849 30.8407 40.0849V40.2849C31.1245 40.2849 31.3545 40.0548 31.3545 39.7711H31.1545ZM31.1545 38.6071V39.7711H31.3545V38.6071H31.1545ZM32.2646 39.4757L31.3252 38.5364L31.1838 38.6778L32.1232 39.6172L32.2646 39.4757ZM32.7083 39.4757C32.5858 39.5983 32.3871 39.5983 32.2646 39.4757L32.1232 39.6172C32.3238 39.8178 32.6491 39.8178 32.8498 39.6172L32.7083 39.4757ZM32.7083 39.032C32.8309 39.1545 32.8309 39.3532 32.7083 39.4757L32.8498 39.6172C33.0504 39.4165 33.0504 39.0912 32.8498 38.8905L32.7083 39.032ZM31.2577 37.5813L32.7083 39.032L32.8498 38.8905L31.3991 37.4399L31.2577 37.5813ZM31.1944 37.5263C31.2164 37.5429 31.2376 37.5612 31.2577 37.5813L31.3991 37.4399C31.3723 37.4131 31.3441 37.3886 31.3146 37.3665L31.1944 37.5263ZM31.1545 35.8091V37.4464H31.3545V35.8091H31.1545ZM31.2045 35.8957L32.6224 36.7144L32.7224 36.5411L31.3045 35.7225L31.2045 35.8957ZM32.5731 36.6398C32.5776 36.6764 32.5846 36.7131 32.5944 36.7497L32.7876 36.6979C32.7803 36.6705 32.775 36.643 32.7717 36.6157L32.5731 36.6398ZM32.5944 36.7497L33.1254 38.7314L33.3186 38.6796L32.7876 36.6979L32.5944 36.7497ZM33.1254 38.7314C33.1989 39.0055 33.4806 39.1681 33.7547 39.0947L33.7029 38.9015C33.5355 38.9463 33.3635 38.847 33.3186 38.6796L33.1254 38.7314ZM33.7547 39.0947C34.0288 39.0212 34.1914 38.7395 34.118 38.4654L33.9248 38.5172C33.9697 38.6846 33.8703 38.8566 33.7029 38.9015L33.7547 39.0947ZM34.118 38.4654L33.7742 37.1822L33.581 37.234L33.9248 38.5172L34.118 38.4654ZM33.6276 37.2947L34.6356 37.8767L34.7356 37.7035L33.7276 37.1215L33.6276 37.2947ZM34.6356 37.8767C34.8814 38.0186 35.1956 37.9344 35.3375 37.6886L35.1643 37.5886C35.0776 37.7387 34.8857 37.7902 34.7356 37.7035L34.6356 37.8767ZM35.3375 37.6886C35.4794 37.4429 35.3952 37.1287 35.1494 36.9868L35.0494 37.16C35.1995 37.2466 35.2509 37.4386 35.1643 37.5886L35.3375 37.6886ZM35.1494 36.9868L34.1414 36.4048L34.0414 36.578L35.0494 37.16L35.1494 36.9868ZM34.1173 36.588L35.4004 36.2441L35.3487 36.051L34.0655 36.3948L34.1173 36.588ZM35.4004 36.2441C35.6745 36.1707 35.8372 35.889 35.7638 35.6149L35.5706 35.6666C35.6154 35.834 35.5161 36.0061 35.3487 36.051L35.4004 36.2441ZM35.7638 35.6149C35.6903 35.3408 35.4086 35.1781 35.1345 35.2516L35.1863 35.4448C35.3537 35.3999 35.5257 35.4992 35.5706 35.6666L35.7638 35.6149ZM35.1345 35.2516L33.1528 35.7826L33.2046 35.9758L35.1863 35.4448L35.1345 35.2516ZM33.1528 35.7826C33.1163 35.7924 33.0809 35.8046 33.047 35.819L33.1254 36.003C33.1507 35.9923 33.1771 35.9831 33.2046 35.9758L33.1528 35.7826ZM33.1362 35.8244L31.7183 35.0058L31.6183 35.179L33.0362 35.9976L33.1362 35.8244ZM31.7183 35.179L33.1362 34.3604L33.0362 34.1872L31.6183 35.0058L31.7183 35.179ZM33.047 34.3658C33.0809 34.3803 33.1162 34.3925 33.1528 34.4023L33.2045 34.2091C33.1771 34.2017 33.1507 34.1926 33.1253 34.1818L33.047 34.3658ZM33.1528 34.4023L35.1345 34.9333L35.1862 34.7401L33.2045 34.2091L33.1528 34.4023ZM35.1345 34.9333C35.4085 35.0067 35.6903 34.8441 35.7637 34.57L35.5705 34.5182C35.5257 34.6856 35.3536 34.7849 35.1862 34.7401L35.1345 34.9333ZM35.7637 34.57C35.8372 34.2959 35.6745 34.0141 35.4004 33.9407L35.3486 34.1339C35.516 34.1787 35.6154 34.3508 35.5705 34.5182L35.7637 34.57ZM35.4004 33.9407L34.1172 33.5969L34.0655 33.7901L35.3486 34.1339L35.4004 33.9407ZM34.1414 33.7801L35.1494 33.1981L35.0494 33.0249L34.0414 33.6069L34.1414 33.7801ZM35.1494 33.1981C35.3951 33.0562 35.4793 32.742 35.3374 32.4962L35.1642 32.5962C35.2509 32.7463 35.1995 32.9382 35.0494 33.0249L35.1494 33.1981ZM35.3374 32.4962C35.1956 32.2505 34.8813 32.1663 34.6356 32.3082L34.7356 32.4814C34.8857 32.3947 35.0776 32.4461 35.1642 32.5962L35.3374 32.4962ZM34.6356 32.3082L33.6275 32.8902L33.7275 33.0634L34.7356 32.4814L34.6356 32.3082ZM33.7741 33.0027L34.118 31.7194L33.9248 31.6677L33.5809 32.9509L33.7741 33.0027ZM34.118 31.7194C34.1914 31.4453 34.0287 31.1636 33.7547 31.0902L33.7029 31.2833C33.8703 31.3282 33.9696 31.5003 33.9248 31.6677L34.118 31.7194ZM33.7547 31.0902C33.4806 31.0167 33.1988 31.1794 33.1254 31.4535L33.3186 31.5052C33.3634 31.3378 33.5355 31.2385 33.7029 31.2833L33.7547 31.0902ZM33.1254 31.4535L32.5944 33.4352L32.7876 33.4869L33.3186 31.5052L33.1254 31.4535ZM32.5944 33.4352C32.5846 33.4717 32.5775 33.5084 32.5731 33.545L32.7716 33.5692C32.7749 33.5419 32.7802 33.5144 32.7876 33.4869L32.5944 33.4352ZM32.6223 33.4705L31.2045 34.2891L31.3045 34.4623L32.7223 33.6437L32.6223 33.4705ZM31.1545 32.7385V34.3757H31.3545V32.7385H31.1545ZM31.2576 32.6036C31.2376 32.6237 31.2164 32.642 31.1944 32.6585L31.3146 32.8184C31.3441 32.7962 31.3723 32.7718 31.3991 32.745L31.2576 32.6036ZM32.7083 31.1529L31.2576 32.6036L31.3991 32.745L32.8498 31.2943L32.7083 31.1529ZM32.7083 30.7091C32.8309 30.8317 32.8309 31.0304 32.7083 31.1529L32.8498 31.2943C33.0504 31.0937 33.0504 30.7684 32.8498 30.5677L32.7083 30.7091ZM32.2646 30.7091C32.3871 30.5866 32.5858 30.5866 32.7083 30.7091L32.8498 30.5677C32.6491 30.3671 32.3238 30.3671 32.1231 30.5677L32.2646 30.7091ZM31.3252 31.6485L32.2646 30.7091L32.1231 30.5677L31.1838 31.5071L31.3252 31.6485ZM31.1545 30.4138V31.5778H31.3545V30.4138H31.1545Z" fill="#3B4668" fill-opacity="0.8" mask="url(#path-4-outside-2_103_894)"/>
</g>
<defs>
<clipPath id="clip0_103_894">
<rect width="44" height="44" fill="white"/>
</clipPath>
</defs>
</svg>
