<svg width="44" height="44" viewBox="0 0 44 44" fill="none" xmlns="http://www.w3.org/2000/svg">
<g clip-path="url(#clip0_103_889)">
<path fill-rule="evenodd" clip-rule="evenodd" d="M33.0532 19.6826C29.1814 19.6826 25.8908 22.3614 24.9055 26.0489C24.7998 26.4446 24.5139 26.7673 24.1338 26.9198C23.7537 27.0724 23.324 27.0369 22.9741 26.8241C22.2577 26.3884 21.517 26.1602 20.7948 26.1602C17.9064 26.1602 15.5171 28.5609 15.5171 31.5822C15.5171 34.6034 17.9064 37.0042 20.7948 37.0042H33.1654C33.179 37.0035 33.1928 37.003 33.2065 37.0028C37.7748 36.9196 41.5002 33.1001 41.5002 28.3434C41.5002 23.5334 37.6919 19.6826 33.0532 19.6826ZM33.3268 39.6008C39.3271 39.452 44.1002 34.4435 44.1002 28.3434C44.1002 22.151 39.1807 17.0826 33.0532 17.0826C28.4769 17.0826 24.5723 19.9129 22.8908 23.922C22.2267 23.6914 21.5233 23.5602 20.7948 23.5602C16.4176 23.5602 12.9171 27.1785 12.9171 31.5822C12.9171 35.9858 16.4176 39.6041 20.7948 39.6041H33.2326C33.2642 39.6041 33.2956 39.603 33.3268 39.6008Z" fill="#3B4668" fill-opacity="0.8"/>
<path fill-rule="evenodd" clip-rule="evenodd" d="M12.4748 6.6C10.649 6.6 9.08103 7.86435 8.60992 9.62761C8.50421 10.0233 8.21825 10.346 7.83819 10.4985C7.45813 10.651 7.02841 10.6156 6.6785 10.4028C6.36391 10.2115 6.06565 10.1274 5.79935 10.1274C4.56551 10.1274 3.5174 11.1575 3.5174 12.4879C3.5174 13.8184 4.56551 14.8485 5.79935 14.8485H12.5234C12.5314 14.8482 12.5395 14.848 12.5475 14.8478C14.7014 14.8086 16.4826 13.003 16.4826 10.7242C16.4826 8.41975 14.6618 6.6 12.4748 6.6ZM12.6509 17.4461C16.2444 17.3504 19.0826 14.3522 19.0826 10.7242C19.0826 7.03728 16.1506 4 12.4748 4C9.9155 4 7.71498 5.47514 6.61604 7.61292C6.35253 7.55761 6.07965 7.52742 5.79935 7.52742C3.07667 7.52742 0.917399 9.77506 0.917399 12.4879C0.917399 15.2008 3.07667 17.4485 5.79935 17.4485H12.5725C12.5988 17.4485 12.6249 17.4477 12.6509 17.4461Z" fill="#3B4668" fill-opacity="0.8"/>
</g>
<defs>
<clipPath id="clip0_103_889">
<rect width="44" height="44" fill="white"/>
</clipPath>
</defs>
</svg>
