<svg width="44" height="44" viewBox="0 0 44 44" fill="none" xmlns="http://www.w3.org/2000/svg">
<path d="M39.9466 30.2089L41.1034 30.8021C41.3662 30.2897 41.2605 29.6654 40.8437 29.268C40.4268 28.8706 39.7982 28.7948 39.2989 29.0818L39.9466 30.2089ZM23.058 4.89096L23.8516 5.92067C24.307 5.56966 24.4778 4.9611 24.2714 4.42437C24.065 3.88764 23.5305 3.55028 22.9572 3.59488L23.058 4.89096ZM39.2989 29.0818C37.256 30.2559 34.8877 30.9278 32.3586 30.9278V33.5278C35.3544 33.5278 38.1679 32.7306 40.5944 31.336L39.2989 29.0818ZM32.3586 30.9278C24.6542 30.9278 18.4085 24.6821 18.4085 16.9776H15.8085C15.8085 26.118 23.2182 33.5278 32.3586 33.5278V30.9278ZM18.4085 16.9776C18.4085 12.4765 20.5388 8.47357 23.8516 5.92067L22.2645 3.86125C18.3405 6.88518 15.8085 11.636 15.8085 16.9776H18.4085ZM8.3 22.2665C8.3 13.7864 14.8454 6.83379 23.1589 6.18704L22.9572 3.59488C13.3008 4.3461 5.7 12.4181 5.7 22.2665H8.3ZM24.4287 38.3952C15.5211 38.3952 8.3 31.1742 8.3 22.2665H5.7C5.7 32.6101 14.0851 40.9952 24.4287 40.9952V38.3952ZM38.7899 29.6157C36.1152 34.831 30.6871 38.3952 24.4287 38.3952V40.9952C31.7 40.9952 38.0011 36.8512 41.1034 30.8021L38.7899 29.6157Z" fill="#3B4668" fill-opacity="0.8"/>
</svg>
