<svg width="44" height="44" viewBox="0 0 44 44" fill="none" xmlns="http://www.w3.org/2000/svg">
<g clip-path="url(#clip0_103_893)">
<path d="M1.37 12.92C3.0925 14.48 4.81499 14.48 6.53749 12.92C8.25999 11.36 9.98249 11.36 11.705 12.92C13.4275 14.48 15.15 14.48 16.8725 12.92C18.595 11.36 20.3175 11.36 22.04 12.92C23.7625 14.48 25.485 14.48 27.2075 12.92C28.93 11.36 30.6525 11.36 32.375 12.92C34.0975 14.48 35.82 14.48 37.5425 12.92" stroke="#3B4668" stroke-opacity="0.8" stroke-width="2.6" stroke-linecap="round" stroke-linejoin="round"/>
<path d="M6.53754 38.66C8.26004 37.1 9.98254 37.1 11.705 38.66C13.4275 40.22 15.15 40.22 16.8725 38.66C18.595 37.1 20.3175 37.1 22.04 38.66C23.7625 40.22 25.485 40.22 27.2075 38.66C28.93 37.1 30.6525 37.1 32.375 38.66C34.0975 40.22 35.82 40.22 37.5425 38.66C39.265 37.1 40.9875 37.1 42.71 38.66" stroke="#3B4668" stroke-opacity="0.4" stroke-width="2.6" stroke-linecap="round" stroke-linejoin="round"/>
<path d="M6.53754 4.34001C8.26004 2.78001 9.98254 2.78001 11.705 4.34001C13.4275 5.90001 15.15 5.90001 16.8725 4.34001C18.595 2.78001 20.3175 2.78001 22.04 4.34001C23.7625 5.90001 25.485 5.90001 27.2075 4.34001C28.93 2.78001 30.6525 2.78001 32.375 4.34001C34.0975 5.90001 35.82 5.90001 37.5425 4.34001C39.265 2.78001 40.9875 2.78001 42.71 4.34001" stroke="#3B4668" stroke-opacity="0.9" stroke-width="2.6" stroke-linecap="round" stroke-linejoin="round"/>
<path d="M1.37 30.08C3.07857 31.64 4.78714 31.64 6.49571 30.08C8.20428 28.52 9.91285 28.52 11.6214 30.08C13.33 31.64 15.0386 31.64 16.7471 30.08C18.4557 28.52 20.1643 28.52 21.8729 30.08C23.5814 31.64 25.29 31.64 26.9986 30.08C28.7071 28.52 30.4157 28.52 32.1243 30.08C33.8329 31.64 35.5414 31.64 37.25 30.08" stroke="#3B4668" stroke-opacity="0.5" stroke-width="2.6" stroke-linecap="round" stroke-linejoin="round"/>
<path d="M7.60999 21.5C9.34075 23.06 11.0715 23.06 12.8023 21.5M16.7484 21.5C18.4792 19.94 20.21 19.94 21.9408 21.5C23.6715 23.06 25.4023 23.06 27.1331 21.5C28.8638 19.94 30.5946 19.94 32.3254 21.5C34.0561 23.06 35.7869 23.06 37.5177 21.5C39.2484 19.94 40.9792 19.94 42.71 21.5" stroke="#3B4668" stroke-opacity="0.7" stroke-width="2.6" stroke-linecap="round" stroke-linejoin="round"/>
</g>
<defs>
<clipPath id="clip0_103_893">
<rect width="44" height="44" fill="white"/>
</clipPath>
</defs>
</svg>
