<svg width="57" height="57" viewBox="0 0 57 57" fill="none" xmlns="http://www.w3.org/2000/svg">
<path d="M2 18.5C4.20833 20.5 6.41667 20.5 8.625 18.5C10.8333 16.5 13.0417 16.5 15.25 18.5C17.4583 20.5 19.6667 20.5 21.875 18.5C24.0833 16.5 26.2917 16.5 28.5 18.5C30.7083 20.5 32.9167 20.5 35.125 18.5C37.3333 16.5 39.5417 16.5 41.75 18.5C43.9583 20.5 46.1667 20.5 48.375 18.5" stroke="white" stroke-opacity="0.8" stroke-width="3" stroke-linecap="round" stroke-linejoin="round"/>
<path d="M8.625 51.5C10.8333 49.5 13.0417 49.5 15.25 51.5C17.4583 53.5 19.6667 53.5 21.875 51.5C24.0833 49.5 26.2917 49.5 28.5 51.5C30.7083 53.5 32.9167 53.5 35.125 51.5C37.3333 49.5 39.5417 49.5 41.75 51.5C43.9583 53.5 46.1667 53.5 48.375 51.5C50.5833 49.5 52.7917 49.5 55 51.5" stroke="white" stroke-opacity="0.2" stroke-width="3" stroke-linecap="round" stroke-linejoin="round"/>
<path d="M8.625 7.5C10.8333 5.5 13.0417 5.5 15.25 7.5C17.4583 9.5 19.6667 9.5 21.875 7.5C24.0833 5.5 26.2917 5.5 28.5 7.5C30.7083 9.5 32.9167 9.5 35.125 7.5C37.3333 5.5 39.5417 5.5 41.75 7.5C43.9583 9.5 46.1667 9.5 48.375 7.5C50.5833 5.5 52.7917 5.5 55 7.5" stroke="white" stroke-width="3" stroke-linecap="round" stroke-linejoin="round"/>
<path d="M2 40.5C4.19048 42.5 6.38095 42.5 8.57143 40.5C10.7619 38.5 12.9524 38.5 15.1429 40.5C17.3333 42.5 19.5238 42.5 21.7143 40.5C23.9048 38.5 26.0952 38.5 28.2857 40.5C30.4762 42.5 32.6667 42.5 34.8571 40.5C37.0476 38.5 39.2381 38.5 41.4286 40.5C43.6191 42.5 45.8095 42.5 48 40.5" stroke="white" stroke-opacity="0.4" stroke-width="3" stroke-linecap="round" stroke-linejoin="round"/>
<path d="M10 29.5C12.2189 31.5 14.4379 31.5 16.6568 29.5M21.716 29.5C23.9349 27.5 26.1538 27.5 28.3728 29.5C30.5917 31.5 32.8107 31.5 35.0296 29.5C37.2485 27.5 39.4675 27.5 41.6864 29.5C43.9053 31.5 46.1243 31.5 48.3432 29.5C50.5621 27.5 52.7811 27.5 55 29.5" stroke="white" stroke-opacity="0.6" stroke-width="3" stroke-linecap="round" stroke-linejoin="round"/>
</svg>
