<svg width="57" height="57" viewBox="0 0 57 57" fill="none" xmlns="http://www.w3.org/2000/svg">
<path d="M20.4267 24.0694C26.1223 23.9674 30.7083 19.2903 30.7083 13.5355C30.7083 7.71692 26.0199 3 20.2366 3C15.4103 3 11.3466 6.28496 10.1338 10.7538C9.18599 10.1863 8.14223 9.85134 7.06675 9.85134C3.16389 9.85134 0 13.0345 0 16.9612C0 20.8879 3.16389 24.0711 7.06675 24.0711H20.4293C20.4293 24.0711 20.4285 24.0705 20.4267 24.0694Z" fill="#3B4668" fill-opacity="0.5" style="mix-blend-mode:multiply"/>
<path d="M39.9959 37.0256C49.4156 36.8569 57 29.1217 57 19.6043C57 9.98115 49.2463 2.18008 39.6815 2.18008C31.6996 2.18008 24.9788 7.6129 22.9731 15.0037C21.4055 14.0651 19.6793 13.5111 17.9006 13.5111C11.4459 13.5111 6.21327 18.7757 6.21327 25.2698C6.21327 31.7639 11.4459 37.0284 17.9006 37.0284H40.0003C40.0003 37.0284 39.9988 37.0275 39.9959 37.0256Z" fill="white" fill-opacity="0.8"/>
<path d="M15 50L19 46" stroke="white" stroke-opacity="0.8" stroke-width="2" stroke-linecap="round" stroke-linejoin="round"/>
<path d="M31 50L35 46" stroke="white" stroke-opacity="0.8" stroke-width="2" stroke-linecap="round" stroke-linejoin="round"/>
<path d="M17 56L21 52" stroke="white" stroke-opacity="0.8" stroke-width="2" stroke-linecap="round" stroke-linejoin="round"/>
<path d="M33 56L37 52" stroke="white" stroke-opacity="0.8" stroke-width="2" stroke-linecap="round" stroke-linejoin="round"/>
<path d="M22 43L26 39" stroke="white" stroke-opacity="0.8" stroke-width="2" stroke-linecap="round" stroke-linejoin="round"/>
<path d="M38 43L42 39" stroke="white" stroke-opacity="0.8" stroke-width="2" stroke-linecap="round" stroke-linejoin="round"/>
<path d="M24 49L28 45" stroke="white" stroke-opacity="0.8" stroke-width="2" stroke-linecap="round" stroke-linejoin="round"/>
<path d="M31 42L35 38" stroke="white" stroke-opacity="0.8" stroke-width="2" stroke-linecap="round" stroke-linejoin="round"/>
<path d="M40 49L44 45" stroke="white" stroke-opacity="0.8" stroke-width="2" stroke-linecap="round" stroke-linejoin="round"/>
</svg>
