<svg width="57" height="57" viewBox="0 0 57 57" fill="none" xmlns="http://www.w3.org/2000/svg">
<path d="M20.4267 21.8893C26.1223 21.7873 30.7083 17.1102 30.7083 11.3555C30.7083 5.53684 26.0199 0.819916 20.2366 0.819916C15.4103 0.819916 11.3466 4.10487 10.1338 8.57371C9.18599 8.00622 8.14223 7.67125 7.06675 7.67125C3.16389 7.67125 0 10.8545 0 14.7811C0 18.7078 3.16389 21.891 7.06675 21.891H20.4293C20.4293 21.891 20.4285 21.8904 20.4267 21.8893Z" fill="white" fill-opacity="0.8"/>
<path d="M39.9959 34.8455C49.4156 34.6768 57 26.9416 57 17.4242C57 7.80107 49.2462 0 39.6815 0C31.6996 0 24.9788 5.43281 22.9731 12.8236C21.4055 11.885 19.6793 11.3311 17.9006 11.3311C11.4458 11.3311 6.21326 16.5956 6.21326 23.0897C6.21326 29.5838 11.4458 34.8483 17.9006 34.8483H40.0002C40.0002 34.8483 39.9988 34.8474 39.9959 34.8455Z" fill="white" fill-opacity="0.8"/>
<path d="M21.7437 37.257V55.743" stroke="white" stroke-width="1.5" stroke-linecap="round"/>
<path d="M18.4924 38.2788L21.3901 41.1766C21.5854 41.3718 21.902 41.3718 22.0973 41.1766L24.995 38.2788" stroke="white" stroke-width="1.5" stroke-linecap="round"/>
<path d="M24.995 54.7211L22.0973 51.8234C21.902 51.6281 21.5854 51.6281 21.3902 51.8234L18.4924 54.7211" stroke="white" stroke-width="1.5" stroke-linecap="round"/>
<path d="M13.739 41.8785L29.7484 51.1215" stroke="white" stroke-width="1.5" stroke-linecap="round"/>
<path d="M12.9984 45.2051L16.9567 44.1445C17.2235 44.073 17.3818 43.7989 17.3103 43.5321L16.2497 39.5737" stroke="white" stroke-width="1.5" stroke-linecap="round"/>
<path d="M30.4891 47.7949L26.5307 48.8555C26.264 48.927 26.1057 49.2012 26.1772 49.4679L27.2378 53.4263" stroke="white" stroke-width="1.5" stroke-linecap="round"/>
<path d="M13.739 51.1215L29.7484 41.8785" stroke="white" stroke-width="1.5" stroke-linecap="round"/>
<path d="M16.2497 53.4263L17.3103 49.4679C17.3818 49.2012 17.2235 48.927 16.9568 48.8555L12.9984 47.7949" stroke="white" stroke-width="1.5" stroke-linecap="round"/>
<path d="M27.2378 39.5737L26.1771 43.5321C26.1057 43.7988 26.264 44.073 26.5307 44.1445L30.4891 45.2051" stroke="white" stroke-width="1.5" stroke-linecap="round"/>
<path fill-rule="evenodd" clip-rule="evenodd" d="M42.5483 35.9004C42.5483 35.6719 42.363 35.4866 42.1345 35.4866C41.9059 35.4866 41.7207 35.6719 41.7207 35.9004V37.259L40.6332 36.1716C40.4716 36.01 40.2096 36.01 40.048 36.1716C39.8865 36.3332 39.8865 36.5952 40.048 36.7568L41.6468 38.3555C41.6702 38.379 41.6949 38.4004 41.7207 38.4197V40.2833L40.1067 39.3515C40.1029 39.3195 40.0967 39.2875 40.0881 39.2555L39.5029 37.0715C39.4438 36.8508 39.2169 36.7198 38.9961 36.7789C38.7754 36.8381 38.6444 37.065 38.7035 37.2857L39.1016 38.7711L37.925 38.0918C37.7271 37.9776 37.474 38.0454 37.3597 38.2433C37.2455 38.4412 37.3133 38.6943 37.5112 38.8085L38.6878 39.4879L37.2023 39.8859C36.9816 39.9451 36.8506 40.172 36.9097 40.3927C36.9689 40.6135 37.1958 40.7445 37.4165 40.6853L39.6005 40.1001C39.6325 40.0915 39.6634 40.0808 39.693 40.0682L41.3069 41L39.693 41.9318C39.6633 41.9192 39.6325 41.9085 39.6004 41.8999L37.4165 41.3147C37.1958 41.2556 36.9689 41.3866 36.9097 41.6073C36.8506 41.8281 36.9816 42.055 37.2023 42.1141L38.6878 42.5121L37.5112 43.1914C37.3133 43.3057 37.2455 43.5588 37.3597 43.7567C37.474 43.9546 37.7271 44.0224 37.925 43.9081L39.1016 43.2289L38.7035 44.7143C38.6444 44.935 38.7754 45.1619 38.9961 45.2211C39.2169 45.2802 39.4438 45.1492 39.5029 44.9285L40.0881 42.7446C40.0967 42.7126 40.1029 42.6805 40.1067 42.6485L41.7207 41.7167V43.5803C41.6949 43.5996 41.6702 43.621 41.6468 43.6444L40.0481 45.2432C39.8865 45.4048 39.8865 45.6668 40.0481 45.8284C40.2096 45.99 40.4716 45.99 40.6332 45.8284L41.7207 44.741V46.0996C41.7207 46.3281 41.9059 46.5134 42.1345 46.5134C42.363 46.5134 42.5483 46.3281 42.5483 46.0996V44.741L43.6357 45.8284C43.7973 45.99 44.0593 45.99 44.2209 45.8284C44.3825 45.6668 44.3825 45.4048 44.2209 45.2432L42.6221 43.6444C42.5987 43.621 42.574 43.5996 42.5483 43.5803V41.7167L44.1622 42.6485C44.166 42.6804 44.1722 42.7125 44.1808 42.7445L44.766 44.9285C44.8251 45.1492 45.052 45.2802 45.2728 45.2211C45.4935 45.1619 45.6245 44.935 45.5654 44.7143L45.1673 43.2288L46.3439 43.9081C46.5419 44.0224 46.7949 43.9546 46.9092 43.7567C47.0235 43.5588 46.9556 43.3057 46.7577 43.1914L45.5811 42.5121L47.0666 42.1141C47.2873 42.0549 47.4183 41.828 47.3592 41.6073C47.3 41.3865 47.0731 41.2555 46.8524 41.3147L44.6685 41.8999C44.6365 41.9085 44.6056 41.9191 44.5759 41.9318L42.9621 41L44.576 40.0682C44.6056 40.0808 44.6365 40.0915 44.6684 40.1001L46.8524 40.6853C47.0731 40.7444 47.3 40.6134 47.3592 40.3927C47.4183 40.1719 47.2873 39.945 47.0666 39.8859L45.5812 39.4879L46.7577 38.8086C46.9556 38.6943 47.0234 38.4412 46.9092 38.2433C46.7949 38.0454 46.5418 37.9776 46.3439 38.0919L45.1673 38.7712L45.5654 37.2857C45.6245 37.0649 45.4935 36.838 45.2728 36.7789C45.052 36.7197 44.8251 36.8507 44.766 37.0715L44.1808 39.2554C44.1722 39.2874 44.166 39.3195 44.1621 39.3515L42.5483 40.2833V38.4197C42.574 38.4004 42.5987 38.379 42.6221 38.3555L44.2209 36.7568C44.3825 36.5952 44.3825 36.3332 44.2209 36.1716C44.0593 36.01 43.7973 36.01 43.6357 36.1716L42.5483 37.259V35.9004Z" fill="white"/>
</svg>
