<svg width="57" height="57" viewBox="0 0 57 57" fill="none" xmlns="http://www.w3.org/2000/svg">
<path d="M20.4267 21.8893C26.1223 21.7873 30.7083 17.1102 30.7083 11.3555C30.7083 5.53684 26.0199 0.819916 20.2366 0.819916C15.4103 0.819916 11.3466 4.10487 10.1338 8.57371C9.18599 8.00622 8.14223 7.67125 7.06675 7.67125C3.16389 7.67125 0 10.8545 0 14.7811C0 18.7078 3.16389 21.891 7.06675 21.891H20.4293C20.4293 21.891 20.4285 21.8904 20.4267 21.8893Z" fill="#999999" fill-opacity="0.8" style="mix-blend-mode:multiply"/>
<path d="M39.9959 34.8455C49.4156 34.6768 57 26.9416 57 17.4242C57 7.80107 49.2463 0 39.6815 0C31.6996 0 24.9788 5.43281 22.9731 12.8236C21.4055 11.885 19.6793 11.3311 17.9006 11.3311C11.4459 11.3311 6.21327 16.5956 6.21327 23.0897C6.21327 29.5838 11.4459 34.8483 17.9006 34.8483H40.0003C40.0003 34.8483 39.9988 34.8474 39.9959 34.8455Z" fill="white" fill-opacity="0.8"/>
<path d="M21.3039 44.1268L26.0088 33.3007C26.0882 33.1181 26.2683 33 26.4674 33H33.5826C33.966 33 34.2067 33.4137 34.0173 33.747L31.3083 38.5138C31.1188 38.8471 31.3596 39.2609 31.743 39.2609H37.0116C37.4215 39.2609 37.6572 39.7269 37.4144 40.0571L26.6301 54.7204C26.2987 55.1709 25.5905 54.8206 25.7473 54.2839L28.3245 45.4664C28.418 45.1463 28.178 44.8261 27.8446 44.8261H21.7625C21.4024 44.8261 21.1604 44.457 21.3039 44.1268Z" fill="white" fill-opacity="0.8"/>
</svg>
